<mxfile host="Electron" agent="Mozilla/5.0 (Windows NT 10.0; Win64; x64) AppleWebKit/537.36 (KHTML, like Gecko) draw.io/24.7.17 Chrome/128.0.6613.36 Electron/32.0.1 Safari/537.36" version="24.7.17">
  <diagram name="第 1 页" id="f8YywHsEjH6FdnHRCllN">
    <mxGraphModel dx="4148" dy="3657" grid="1" gridSize="10" guides="1" tooltips="1" connect="1" arrows="1" fold="1" page="1" pageScale="1" pageWidth="827" pageHeight="1169" background="none" math="1" shadow="0">
      <root>
        <mxCell id="0" />
        <mxCell id="1" parent="0" />
        <mxCell id="HIBAQgxya3U2K_z9rvxj-6" value="&lt;font style=&quot;font-size: 24px;&quot;&gt;$$K_{p}^{vel} \dot{e}_{j} + T_{\omega} K_{i}^{vel} \sum_{j = 0}^{k} \dot{e}_{j}$$&lt;/font&gt;" style="rounded=0;whiteSpace=wrap;html=1;" parent="1" vertex="1">
          <mxGeometry x="2794" y="-115" width="330" height="90" as="geometry" />
        </mxCell>
        <mxCell id="HIBAQgxya3U2K_z9rvxj-3" style="edgeStyle=orthogonalEdgeStyle;rounded=0;orthogonalLoop=1;jettySize=auto;html=1;exitX=1;exitY=0.5;exitDx=0;exitDy=0;entryX=0;entryY=0.5;entryDx=0;entryDy=0;" parent="1" source="HIBAQgxya3U2K_z9rvxj-1" target="HIBAQgxya3U2K_z9rvxj-2" edge="1">
          <mxGeometry relative="1" as="geometry" />
        </mxCell>
        <mxCell id="HIBAQgxya3U2K_z9rvxj-14" value="&lt;font style=&quot;font-size: 24px;&quot;&gt;$$e_{j}$$&lt;/font&gt;" style="edgeLabel;html=1;align=center;verticalAlign=middle;resizable=0;points=[];labelBackgroundColor=none;" parent="HIBAQgxya3U2K_z9rvxj-3" vertex="1" connectable="0">
          <mxGeometry x="-0.0841" relative="1" as="geometry">
            <mxPoint y="-20" as="offset" />
          </mxGeometry>
        </mxCell>
        <mxCell id="HIBAQgxya3U2K_z9rvxj-1" value="" style="shape=sumEllipse;perimeter=ellipsePerimeter;whiteSpace=wrap;html=1;backgroundOutline=1;" parent="1" vertex="1">
          <mxGeometry x="2254" y="-90" width="40" height="40" as="geometry" />
        </mxCell>
        <mxCell id="HIBAQgxya3U2K_z9rvxj-5" style="edgeStyle=orthogonalEdgeStyle;rounded=0;orthogonalLoop=1;jettySize=auto;html=1;exitX=1;exitY=0.5;exitDx=0;exitDy=0;entryX=0;entryY=0.5;entryDx=0;entryDy=0;" parent="1" source="HIBAQgxya3U2K_z9rvxj-2" target="HIBAQgxya3U2K_z9rvxj-4" edge="1">
          <mxGeometry relative="1" as="geometry" />
        </mxCell>
        <mxCell id="HIBAQgxya3U2K_z9rvxj-16" value="&lt;font style=&quot;font-size: 24px;&quot;&gt;$$\dot{q}_{j}$$&lt;/font&gt;" style="edgeLabel;html=1;align=center;verticalAlign=middle;resizable=0;points=[];labelBackgroundColor=none;" parent="HIBAQgxya3U2K_z9rvxj-5" vertex="1" connectable="0">
          <mxGeometry x="-0.0483" y="1" relative="1" as="geometry">
            <mxPoint y="-19" as="offset" />
          </mxGeometry>
        </mxCell>
        <mxCell id="HIBAQgxya3U2K_z9rvxj-36" value="&lt;font style=&quot;font-size: 24px;&quot;&gt;+&lt;/font&gt;" style="edgeLabel;html=1;align=center;verticalAlign=middle;resizable=0;points=[];labelBackgroundColor=none;" parent="HIBAQgxya3U2K_z9rvxj-5" vertex="1" connectable="0">
          <mxGeometry x="0.7199" relative="1" as="geometry">
            <mxPoint y="-10" as="offset" />
          </mxGeometry>
        </mxCell>
        <mxCell id="HIBAQgxya3U2K_z9rvxj-2" value="&lt;font style=&quot;font-size: 24px;&quot;&gt;$$K_{p}^{pos} e_{j} G_{\theta}$$&lt;/font&gt;" style="rounded=0;whiteSpace=wrap;html=1;" parent="1" vertex="1">
          <mxGeometry x="2394" y="-100" width="160" height="60" as="geometry" />
        </mxCell>
        <mxCell id="HIBAQgxya3U2K_z9rvxj-7" style="edgeStyle=orthogonalEdgeStyle;rounded=0;orthogonalLoop=1;jettySize=auto;html=1;exitX=1;exitY=0.5;exitDx=0;exitDy=0;entryX=0;entryY=0.5;entryDx=0;entryDy=0;" parent="1" source="HIBAQgxya3U2K_z9rvxj-4" target="HIBAQgxya3U2K_z9rvxj-6" edge="1">
          <mxGeometry relative="1" as="geometry" />
        </mxCell>
        <mxCell id="HIBAQgxya3U2K_z9rvxj-17" value="&lt;font style=&quot;font-size: 24px;&quot;&gt;$$\dot{e}_{j}$$&lt;/font&gt;" style="edgeLabel;html=1;align=center;verticalAlign=middle;resizable=0;points=[];labelBackgroundColor=none;" parent="HIBAQgxya3U2K_z9rvxj-7" vertex="1" connectable="0">
          <mxGeometry x="-0.0686" y="1" relative="1" as="geometry">
            <mxPoint y="-19" as="offset" />
          </mxGeometry>
        </mxCell>
        <mxCell id="HIBAQgxya3U2K_z9rvxj-4" value="" style="shape=sumEllipse;perimeter=ellipsePerimeter;whiteSpace=wrap;html=1;backgroundOutline=1;" parent="1" vertex="1">
          <mxGeometry x="2654" y="-90" width="40" height="40" as="geometry" />
        </mxCell>
        <mxCell id="HIBAQgxya3U2K_z9rvxj-9" style="edgeStyle=orthogonalEdgeStyle;rounded=0;orthogonalLoop=1;jettySize=auto;html=1;exitX=1;exitY=0.5;exitDx=0;exitDy=0;entryX=0;entryY=0.5;entryDx=0;entryDy=0;" parent="1" source="HIBAQgxya3U2K_z9rvxj-6" target="HIBAQgxya3U2K_z9rvxj-8" edge="1">
          <mxGeometry relative="1" as="geometry" />
        </mxCell>
        <mxCell id="HIBAQgxya3U2K_z9rvxj-18" value="&lt;font style=&quot;font-size: 24px;&quot;&gt;$$I_{q_{set_{j}}}$$&lt;/font&gt;" style="edgeLabel;html=1;align=center;verticalAlign=middle;resizable=0;points=[];labelBackgroundColor=none;" parent="HIBAQgxya3U2K_z9rvxj-9" vertex="1" connectable="0">
          <mxGeometry x="-0.02" y="-1" relative="1" as="geometry">
            <mxPoint y="-21" as="offset" />
          </mxGeometry>
        </mxCell>
        <mxCell id="HIBAQgxya3U2K_z9rvxj-38" value="&lt;font style=&quot;font-size: 24px;&quot;&gt;+&lt;/font&gt;" style="edgeLabel;html=1;align=center;verticalAlign=middle;resizable=0;points=[];labelBackgroundColor=none;" parent="HIBAQgxya3U2K_z9rvxj-9" vertex="1" connectable="0">
          <mxGeometry x="0.7215" relative="1" as="geometry">
            <mxPoint x="-1" y="-10" as="offset" />
          </mxGeometry>
        </mxCell>
        <mxCell id="HIBAQgxya3U2K_z9rvxj-11" style="edgeStyle=orthogonalEdgeStyle;rounded=0;orthogonalLoop=1;jettySize=auto;html=1;exitX=1;exitY=0.5;exitDx=0;exitDy=0;entryX=0;entryY=0.5;entryDx=0;entryDy=0;" parent="1" source="h92efnEn3jgeTVQK39Qd-1" target="HIBAQgxya3U2K_z9rvxj-10" edge="1">
          <mxGeometry relative="1" as="geometry" />
        </mxCell>
        <mxCell id="h92efnEn3jgeTVQK39Qd-4" value="&lt;font style=&quot;font-size: 24px;&quot;&gt;$$V_{set_{j}}$$&lt;/font&gt;" style="edgeLabel;html=1;align=center;verticalAlign=middle;resizable=0;points=[];labelBackgroundColor=none;" parent="HIBAQgxya3U2K_z9rvxj-11" vertex="1" connectable="0">
          <mxGeometry x="-0.0333" y="1" relative="1" as="geometry">
            <mxPoint y="-19" as="offset" />
          </mxGeometry>
        </mxCell>
        <mxCell id="HIBAQgxya3U2K_z9rvxj-8" value="" style="shape=sumEllipse;perimeter=ellipsePerimeter;whiteSpace=wrap;html=1;backgroundOutline=1;" parent="1" vertex="1">
          <mxGeometry x="3227.42" y="-90" width="40" height="40" as="geometry" />
        </mxCell>
        <mxCell id="HIBAQgxya3U2K_z9rvxj-20" style="edgeStyle=orthogonalEdgeStyle;rounded=0;orthogonalLoop=1;jettySize=auto;html=1;exitX=0.5;exitY=1;exitDx=0;exitDy=0;entryX=0.5;entryY=1;entryDx=0;entryDy=0;" parent="1" source="HIBAQgxya3U2K_z9rvxj-10" target="HIBAQgxya3U2K_z9rvxj-1" edge="1">
          <mxGeometry relative="1" as="geometry">
            <Array as="points">
              <mxPoint x="3758" y="110" />
              <mxPoint x="2274" y="110" />
            </Array>
          </mxGeometry>
        </mxCell>
        <mxCell id="HIBAQgxya3U2K_z9rvxj-26" value="&lt;font style=&quot;font-size: 18px;&quot;&gt;$$5\rm{kHz}$$&lt;/font&gt;" style="edgeLabel;html=1;align=center;verticalAlign=middle;resizable=0;points=[];labelBackgroundColor=none;" parent="HIBAQgxya3U2K_z9rvxj-20" vertex="1" connectable="0">
          <mxGeometry x="-0.0107" y="1" relative="1" as="geometry">
            <mxPoint x="-35" y="19" as="offset" />
          </mxGeometry>
        </mxCell>
        <mxCell id="HIBAQgxya3U2K_z9rvxj-30" value="&lt;font style=&quot;font-size: 24px;&quot;&gt;$$q_{j}$$&lt;/font&gt;" style="edgeLabel;html=1;align=center;verticalAlign=middle;resizable=0;points=[];labelBackgroundColor=none;" parent="HIBAQgxya3U2K_z9rvxj-20" vertex="1" connectable="0">
          <mxGeometry x="0.8866" relative="1" as="geometry">
            <mxPoint x="20" y="-61" as="offset" />
          </mxGeometry>
        </mxCell>
        <mxCell id="HIBAQgxya3U2K_z9rvxj-21" style="edgeStyle=orthogonalEdgeStyle;rounded=0;orthogonalLoop=1;jettySize=auto;html=1;exitX=0.5;exitY=1;exitDx=0;exitDy=0;entryX=0.5;entryY=1;entryDx=0;entryDy=0;" parent="1" source="HIBAQgxya3U2K_z9rvxj-10" target="HIBAQgxya3U2K_z9rvxj-4" edge="1">
          <mxGeometry relative="1" as="geometry">
            <Array as="points">
              <mxPoint x="3758" y="60" />
              <mxPoint x="2674" y="60" />
            </Array>
          </mxGeometry>
        </mxCell>
        <mxCell id="HIBAQgxya3U2K_z9rvxj-25" value="&lt;font style=&quot;font-size: 18px;&quot;&gt;$$10\rm{kHz}$$&lt;/font&gt;" style="edgeLabel;html=1;align=center;verticalAlign=middle;resizable=0;points=[];labelBackgroundColor=none;" parent="HIBAQgxya3U2K_z9rvxj-21" vertex="1" connectable="0">
          <mxGeometry x="-0.0125" relative="1" as="geometry">
            <mxPoint x="-12" y="20" as="offset" />
          </mxGeometry>
        </mxCell>
        <mxCell id="HIBAQgxya3U2K_z9rvxj-31" value="&lt;font style=&quot;font-size: 24px;&quot;&gt;$$\dot{q}_{j} G_{\omega}$$&lt;/font&gt;" style="edgeLabel;html=1;align=center;verticalAlign=middle;resizable=0;points=[];labelBackgroundColor=none;" parent="HIBAQgxya3U2K_z9rvxj-21" vertex="1" connectable="0">
          <mxGeometry x="0.8034" y="-1" relative="1" as="geometry">
            <mxPoint x="25" y="-69" as="offset" />
          </mxGeometry>
        </mxCell>
        <mxCell id="HIBAQgxya3U2K_z9rvxj-22" style="edgeStyle=orthogonalEdgeStyle;rounded=0;orthogonalLoop=1;jettySize=auto;html=1;exitX=0.5;exitY=1;exitDx=0;exitDy=0;entryX=0.5;entryY=1;entryDx=0;entryDy=0;" parent="1" source="HIBAQgxya3U2K_z9rvxj-10" target="HIBAQgxya3U2K_z9rvxj-8" edge="1">
          <mxGeometry relative="1" as="geometry">
            <Array as="points">
              <mxPoint x="3758" y="10" />
              <mxPoint x="3247" y="10" />
            </Array>
          </mxGeometry>
        </mxCell>
        <mxCell id="HIBAQgxya3U2K_z9rvxj-24" value="&lt;font style=&quot;font-size: 18px;&quot;&gt;$$20\rm{kHz}$$&lt;/font&gt;" style="edgeLabel;html=1;align=center;verticalAlign=middle;resizable=0;points=[];labelBackgroundColor=none;" parent="HIBAQgxya3U2K_z9rvxj-22" vertex="1" connectable="0">
          <mxGeometry x="-0.1024" relative="1" as="geometry">
            <mxPoint x="-25" y="20" as="offset" />
          </mxGeometry>
        </mxCell>
        <mxCell id="HIBAQgxya3U2K_z9rvxj-10" value="M" style="verticalLabelPosition=middle;shadow=0;dashed=0;align=center;html=1;verticalAlign=middle;strokeWidth=1;shape=ellipse;aspect=fixed;fontSize=35;" parent="1" vertex="1">
          <mxGeometry x="3708" y="-120" width="100" height="100" as="geometry" />
        </mxCell>
        <mxCell id="HIBAQgxya3U2K_z9rvxj-12" value="" style="endArrow=classic;html=1;rounded=0;" parent="1" edge="1">
          <mxGeometry width="50" height="50" relative="1" as="geometry">
            <mxPoint x="2094" y="-70" as="sourcePoint" />
            <mxPoint x="2254" y="-70" as="targetPoint" />
          </mxGeometry>
        </mxCell>
        <mxCell id="HIBAQgxya3U2K_z9rvxj-13" value="&lt;font style=&quot;font-size: 24px;&quot;&gt;$$q_{d_{j}}$$&lt;/font&gt;" style="edgeLabel;html=1;align=center;verticalAlign=middle;resizable=0;points=[];labelBackgroundColor=none;" parent="HIBAQgxya3U2K_z9rvxj-12" vertex="1" connectable="0">
          <mxGeometry x="0.0063" y="3" relative="1" as="geometry">
            <mxPoint y="-17" as="offset" />
          </mxGeometry>
        </mxCell>
        <mxCell id="HIBAQgxya3U2K_z9rvxj-34" value="&lt;font style=&quot;font-size: 24px;&quot;&gt;+&lt;/font&gt;" style="edgeLabel;html=1;align=center;verticalAlign=middle;resizable=0;points=[];labelBackgroundColor=none;" parent="HIBAQgxya3U2K_z9rvxj-12" vertex="1" connectable="0">
          <mxGeometry x="0.6781" relative="1" as="geometry">
            <mxPoint x="12" y="-10" as="offset" />
          </mxGeometry>
        </mxCell>
        <mxCell id="HIBAQgxya3U2K_z9rvxj-35" value="&lt;font style=&quot;font-size: 24px;&quot;&gt;-&lt;/font&gt;" style="edgeLabel;html=1;align=center;verticalAlign=middle;resizable=0;points=[];labelBackgroundColor=none;" parent="1" vertex="1" connectable="0">
          <mxGeometry x="2267.996666666667" y="-50" as="geometry">
            <mxPoint x="-3" y="1" as="offset" />
          </mxGeometry>
        </mxCell>
        <mxCell id="HIBAQgxya3U2K_z9rvxj-37" value="&lt;font style=&quot;font-size: 24px;&quot;&gt;-&lt;/font&gt;" style="edgeLabel;html=1;align=center;verticalAlign=middle;resizable=0;points=[];labelBackgroundColor=none;" parent="1" vertex="1" connectable="0">
          <mxGeometry x="2664.0022222222224" y="-49.99999999999994" as="geometry" />
        </mxCell>
        <mxCell id="HIBAQgxya3U2K_z9rvxj-39" value="&lt;font style=&quot;font-size: 24px;&quot;&gt;-&lt;/font&gt;" style="edgeLabel;html=1;align=center;verticalAlign=middle;resizable=0;points=[];labelBackgroundColor=none;" parent="1" vertex="1" connectable="0">
          <mxGeometry x="3090.0004201680676" y="-78" as="geometry">
            <mxPoint x="148" y="28" as="offset" />
          </mxGeometry>
        </mxCell>
        <mxCell id="HIBAQgxya3U2K_z9rvxj-43" value="&lt;font style=&quot;font-size: 24px;&quot;&gt;$$I_{q_{feedback_{j}}}$$&lt;/font&gt;" style="edgeLabel;html=1;align=center;verticalAlign=middle;resizable=0;points=[];labelBackgroundColor=none;" parent="1" vertex="1" connectable="0">
          <mxGeometry x="3295.004577899711" y="-9.996648557513595" as="geometry" />
        </mxCell>
        <mxCell id="h92efnEn3jgeTVQK39Qd-2" value="" style="edgeStyle=orthogonalEdgeStyle;rounded=0;orthogonalLoop=1;jettySize=auto;html=1;exitX=1;exitY=0.5;exitDx=0;exitDy=0;entryX=0;entryY=0.5;entryDx=0;entryDy=0;" parent="1" source="HIBAQgxya3U2K_z9rvxj-8" target="h92efnEn3jgeTVQK39Qd-1" edge="1">
          <mxGeometry relative="1" as="geometry">
            <mxPoint x="3267" y="-70" as="sourcePoint" />
            <mxPoint x="3534" y="-70" as="targetPoint" />
          </mxGeometry>
        </mxCell>
        <mxCell id="h92efnEn3jgeTVQK39Qd-3" value="&lt;font style=&quot;font-size: 24px;&quot;&gt;$$I_{q_{err_{j}}}$$&lt;/font&gt;" style="edgeLabel;html=1;align=center;verticalAlign=middle;resizable=0;points=[];labelBackgroundColor=none;" parent="h92efnEn3jgeTVQK39Qd-2" vertex="1" connectable="0">
          <mxGeometry x="-0.0817" y="-1" relative="1" as="geometry">
            <mxPoint y="-21" as="offset" />
          </mxGeometry>
        </mxCell>
        <mxCell id="h92efnEn3jgeTVQK39Qd-1" value="&lt;font style=&quot;font-size: 24px;&quot;&gt;$$I_{q} \ \text{PI Controller}$$&lt;/font&gt;" style="rounded=0;whiteSpace=wrap;html=1;" parent="1" vertex="1">
          <mxGeometry x="3374" y="-100" width="220" height="60" as="geometry" />
        </mxCell>
        <mxCell id="7iqt9CYVd9aHQICD8VI--1" value="&lt;font style=&quot;font-size: 24px;&quot;&gt;$$K_{d}^{pd} \dot{e}_{j}&amp;nbsp;G_{pd}$$&lt;/font&gt;" style="rounded=0;whiteSpace=wrap;html=1;" parent="1" vertex="1">
          <mxGeometry x="550" y="330" width="330" height="90" as="geometry" />
        </mxCell>
        <mxCell id="7iqt9CYVd9aHQICD8VI--2" style="edgeStyle=orthogonalEdgeStyle;rounded=0;orthogonalLoop=1;jettySize=auto;html=1;exitX=1;exitY=0.5;exitDx=0;exitDy=0;entryX=0;entryY=0.5;entryDx=0;entryDy=0;" parent="1" source="7iqt9CYVd9aHQICD8VI--4" target="7iqt9CYVd9aHQICD8VI--8" edge="1">
          <mxGeometry relative="1" as="geometry" />
        </mxCell>
        <mxCell id="7iqt9CYVd9aHQICD8VI--3" value="&lt;font style=&quot;font-size: 24px;&quot;&gt;$$e_{j}$$&lt;/font&gt;" style="edgeLabel;html=1;align=center;verticalAlign=middle;resizable=0;points=[];labelBackgroundColor=none;" parent="7iqt9CYVd9aHQICD8VI--2" vertex="1" connectable="0">
          <mxGeometry x="-0.0841" relative="1" as="geometry">
            <mxPoint x="-43" y="11" as="offset" />
          </mxGeometry>
        </mxCell>
        <mxCell id="7iqt9CYVd9aHQICD8VI--4" value="" style="shape=sumEllipse;perimeter=ellipsePerimeter;whiteSpace=wrap;html=1;backgroundOutline=1;" parent="1" vertex="1">
          <mxGeometry x="370" y="195" width="40" height="40" as="geometry" />
        </mxCell>
        <mxCell id="7iqt9CYVd9aHQICD8VI--5" style="edgeStyle=orthogonalEdgeStyle;rounded=0;orthogonalLoop=1;jettySize=auto;html=1;entryX=0;entryY=0.5;entryDx=0;entryDy=0;" parent="1" target="7iqt9CYVd9aHQICD8VI--11" edge="1">
          <mxGeometry relative="1" as="geometry">
            <mxPoint x="210" y="375" as="sourcePoint" />
            <mxPoint x="369.99999999999716" y="474.77" as="targetPoint" />
            <Array as="points">
              <mxPoint x="210" y="375" />
            </Array>
          </mxGeometry>
        </mxCell>
        <mxCell id="7iqt9CYVd9aHQICD8VI--6" value="&lt;font style=&quot;font-size: 24px;&quot;&gt;$$0$$&lt;/font&gt;" style="edgeLabel;html=1;align=center;verticalAlign=middle;resizable=0;points=[];labelBackgroundColor=none;" parent="7iqt9CYVd9aHQICD8VI--5" vertex="1" connectable="0">
          <mxGeometry x="-0.0483" y="1" relative="1" as="geometry">
            <mxPoint x="4" y="-19" as="offset" />
          </mxGeometry>
        </mxCell>
        <mxCell id="7iqt9CYVd9aHQICD8VI--7" value="&lt;font style=&quot;font-size: 24px;&quot;&gt;+&lt;/font&gt;" style="edgeLabel;html=1;align=center;verticalAlign=middle;resizable=0;points=[];labelBackgroundColor=none;" parent="7iqt9CYVd9aHQICD8VI--5" vertex="1" connectable="0">
          <mxGeometry x="0.7199" relative="1" as="geometry">
            <mxPoint x="10" y="-11" as="offset" />
          </mxGeometry>
        </mxCell>
        <mxCell id="7iqt9CYVd9aHQICD8VI--37" style="edgeStyle=orthogonalEdgeStyle;rounded=0;orthogonalLoop=1;jettySize=auto;html=1;exitX=1;exitY=0.5;exitDx=0;exitDy=0;entryX=0;entryY=0.5;entryDx=0;entryDy=0;" parent="1" source="7iqt9CYVd9aHQICD8VI--8" target="7iqt9CYVd9aHQICD8VI--17" edge="1">
          <mxGeometry relative="1" as="geometry">
            <Array as="points">
              <mxPoint x="970" y="215" />
              <mxPoint x="970" y="295" />
            </Array>
          </mxGeometry>
        </mxCell>
        <mxCell id="7iqt9CYVd9aHQICD8VI--8" value="&lt;font style=&quot;font-size: 24px;&quot;&gt;$$K_{p}^{pd} e_{j} G_{pd}$$&lt;/font&gt;" style="rounded=0;whiteSpace=wrap;html=1;" parent="1" vertex="1">
          <mxGeometry x="635" y="185" width="160" height="60" as="geometry" />
        </mxCell>
        <mxCell id="7iqt9CYVd9aHQICD8VI--9" style="edgeStyle=orthogonalEdgeStyle;rounded=0;orthogonalLoop=1;jettySize=auto;html=1;exitX=1;exitY=0.5;exitDx=0;exitDy=0;entryX=0;entryY=0.5;entryDx=0;entryDy=0;" parent="1" source="7iqt9CYVd9aHQICD8VI--11" target="7iqt9CYVd9aHQICD8VI--1" edge="1">
          <mxGeometry relative="1" as="geometry">
            <Array as="points">
              <mxPoint x="530" y="375" />
              <mxPoint x="530" y="375" />
            </Array>
          </mxGeometry>
        </mxCell>
        <mxCell id="7iqt9CYVd9aHQICD8VI--10" value="&lt;font style=&quot;font-size: 24px;&quot;&gt;$$\dot{e}_{j}$$&lt;/font&gt;" style="edgeLabel;html=1;align=center;verticalAlign=middle;resizable=0;points=[];labelBackgroundColor=none;" parent="7iqt9CYVd9aHQICD8VI--9" vertex="1" connectable="0">
          <mxGeometry x="-0.0686" y="1" relative="1" as="geometry">
            <mxPoint x="-5" y="-19" as="offset" />
          </mxGeometry>
        </mxCell>
        <mxCell id="7iqt9CYVd9aHQICD8VI--11" value="" style="shape=sumEllipse;perimeter=ellipsePerimeter;whiteSpace=wrap;html=1;backgroundOutline=1;" parent="1" vertex="1">
          <mxGeometry x="370" y="355" width="40" height="40" as="geometry" />
        </mxCell>
        <mxCell id="7iqt9CYVd9aHQICD8VI--12" style="edgeStyle=orthogonalEdgeStyle;rounded=0;orthogonalLoop=1;jettySize=auto;html=1;exitX=1;exitY=0.5;exitDx=0;exitDy=0;entryX=0;entryY=0.5;entryDx=0;entryDy=0;" parent="1" source="7iqt9CYVd9aHQICD8VI--1" target="7iqt9CYVd9aHQICD8VI--17" edge="1">
          <mxGeometry relative="1" as="geometry">
            <Array as="points">
              <mxPoint x="970" y="375" />
              <mxPoint x="970" y="295" />
            </Array>
          </mxGeometry>
        </mxCell>
        <mxCell id="7iqt9CYVd9aHQICD8VI--14" value="&lt;font style=&quot;font-size: 24px;&quot;&gt;+&lt;/font&gt;" style="edgeLabel;html=1;align=center;verticalAlign=middle;resizable=0;points=[];labelBackgroundColor=none;" parent="7iqt9CYVd9aHQICD8VI--12" vertex="1" connectable="0">
          <mxGeometry x="0.7215" relative="1" as="geometry">
            <mxPoint x="-90" as="offset" />
          </mxGeometry>
        </mxCell>
        <mxCell id="7iqt9CYVd9aHQICD8VI--15" style="edgeStyle=orthogonalEdgeStyle;rounded=0;orthogonalLoop=1;jettySize=auto;html=1;exitX=1;exitY=0.5;exitDx=0;exitDy=0;entryX=0;entryY=0.5;entryDx=0;entryDy=0;" parent="1" source="7iqt9CYVd9aHQICD8VI--36" target="7iqt9CYVd9aHQICD8VI--26" edge="1">
          <mxGeometry relative="1" as="geometry">
            <mxPoint x="1824" y="285.0000000000002" as="targetPoint" />
          </mxGeometry>
        </mxCell>
        <mxCell id="7iqt9CYVd9aHQICD8VI--16" value="&lt;font style=&quot;font-size: 24px;&quot;&gt;$$V_{set_{j}}$$&lt;/font&gt;" style="edgeLabel;html=1;align=center;verticalAlign=middle;resizable=0;points=[];labelBackgroundColor=none;" parent="7iqt9CYVd9aHQICD8VI--15" vertex="1" connectable="0">
          <mxGeometry x="-0.0333" y="1" relative="1" as="geometry">
            <mxPoint y="-19" as="offset" />
          </mxGeometry>
        </mxCell>
        <mxCell id="7iqt9CYVd9aHQICD8VI--17" value="" style="shape=sumEllipse;perimeter=ellipsePerimeter;whiteSpace=wrap;html=1;backgroundOutline=1;" parent="1" vertex="1">
          <mxGeometry x="1090" y="275" width="40" height="40" as="geometry" />
        </mxCell>
        <mxCell id="7iqt9CYVd9aHQICD8VI--18" style="edgeStyle=orthogonalEdgeStyle;rounded=0;orthogonalLoop=1;jettySize=auto;html=1;exitX=0.5;exitY=0;exitDx=0;exitDy=0;entryX=0.5;entryY=0;entryDx=0;entryDy=0;" parent="1" source="7iqt9CYVd9aHQICD8VI--26" target="7iqt9CYVd9aHQICD8VI--4" edge="1">
          <mxGeometry relative="1" as="geometry">
            <Array as="points">
              <mxPoint x="1710" y="125" />
              <mxPoint x="390" y="125" />
            </Array>
            <mxPoint x="1854" y="25.000000000000227" as="sourcePoint" />
            <mxPoint x="370" y="-4.999999999999773" as="targetPoint" />
          </mxGeometry>
        </mxCell>
        <mxCell id="7iqt9CYVd9aHQICD8VI--19" value="&lt;font style=&quot;font-size: 18px;&quot;&gt;$$10\rm{kHz}$$&lt;/font&gt;" style="edgeLabel;html=1;align=center;verticalAlign=middle;resizable=0;points=[];labelBackgroundColor=none;" parent="7iqt9CYVd9aHQICD8VI--18" vertex="1" connectable="0">
          <mxGeometry x="-0.0107" y="1" relative="1" as="geometry">
            <mxPoint x="-35" y="19" as="offset" />
          </mxGeometry>
        </mxCell>
        <mxCell id="7iqt9CYVd9aHQICD8VI--20" value="&lt;font style=&quot;font-size: 24px;&quot;&gt;$$q_{j}$$&lt;/font&gt;" style="edgeLabel;html=1;align=center;verticalAlign=middle;resizable=0;points=[];labelBackgroundColor=none;" parent="7iqt9CYVd9aHQICD8VI--18" vertex="1" connectable="0">
          <mxGeometry x="0.8866" relative="1" as="geometry">
            <mxPoint x="4" y="20" as="offset" />
          </mxGeometry>
        </mxCell>
        <mxCell id="7iqt9CYVd9aHQICD8VI--21" style="edgeStyle=orthogonalEdgeStyle;rounded=0;orthogonalLoop=1;jettySize=auto;html=1;exitX=0.5;exitY=1;exitDx=0;exitDy=0;entryX=0.5;entryY=1;entryDx=0;entryDy=0;" parent="1" source="7iqt9CYVd9aHQICD8VI--26" target="7iqt9CYVd9aHQICD8VI--11" edge="1">
          <mxGeometry relative="1" as="geometry">
            <Array as="points">
              <mxPoint x="1710" y="475" />
              <mxPoint x="390" y="475" />
            </Array>
            <mxPoint x="1834" y="295" as="sourcePoint" />
            <mxPoint x="350" y="425" as="targetPoint" />
          </mxGeometry>
        </mxCell>
        <mxCell id="7iqt9CYVd9aHQICD8VI--22" value="&lt;font style=&quot;font-size: 18px;&quot;&gt;$$10\rm{kHz}$$&lt;/font&gt;" style="edgeLabel;html=1;align=center;verticalAlign=middle;resizable=0;points=[];labelBackgroundColor=none;" parent="7iqt9CYVd9aHQICD8VI--21" vertex="1" connectable="0">
          <mxGeometry x="-0.0125" relative="1" as="geometry">
            <mxPoint x="-44" y="20" as="offset" />
          </mxGeometry>
        </mxCell>
        <mxCell id="7iqt9CYVd9aHQICD8VI--23" value="&lt;font style=&quot;font-size: 24px;&quot;&gt;$$\dot{q}_{j} G_{\omega}$$&lt;/font&gt;" style="edgeLabel;html=1;align=center;verticalAlign=middle;resizable=0;points=[];labelBackgroundColor=none;" parent="7iqt9CYVd9aHQICD8VI--21" vertex="1" connectable="0">
          <mxGeometry x="0.8034" y="-1" relative="1" as="geometry">
            <mxPoint x="-30" y="-19" as="offset" />
          </mxGeometry>
        </mxCell>
        <mxCell id="7iqt9CYVd9aHQICD8VI--24" style="edgeStyle=orthogonalEdgeStyle;rounded=0;orthogonalLoop=1;jettySize=auto;html=1;entryX=0.5;entryY=1;entryDx=0;entryDy=0;" parent="1" target="7iqt9CYVd9aHQICD8VI--17" edge="1">
          <mxGeometry relative="1" as="geometry">
            <Array as="points">
              <mxPoint x="1710" y="405" />
              <mxPoint x="1110" y="405" />
            </Array>
            <mxPoint x="1710" y="345" as="sourcePoint" />
          </mxGeometry>
        </mxCell>
        <mxCell id="7iqt9CYVd9aHQICD8VI--25" value="&lt;font style=&quot;font-size: 18px;&quot;&gt;$$20\rm{kHz}$$&lt;/font&gt;" style="edgeLabel;html=1;align=center;verticalAlign=middle;resizable=0;points=[];labelBackgroundColor=none;" parent="7iqt9CYVd9aHQICD8VI--24" vertex="1" connectable="0">
          <mxGeometry x="-0.1024" relative="1" as="geometry">
            <mxPoint x="-34" y="21" as="offset" />
          </mxGeometry>
        </mxCell>
        <mxCell id="7iqt9CYVd9aHQICD8VI--26" value="M" style="verticalLabelPosition=middle;shadow=0;dashed=0;align=center;html=1;verticalAlign=middle;strokeWidth=1;shape=ellipse;aspect=fixed;fontSize=35;" parent="1" vertex="1">
          <mxGeometry x="1660" y="245" width="100" height="100" as="geometry" />
        </mxCell>
        <mxCell id="7iqt9CYVd9aHQICD8VI--27" value="" style="endArrow=classic;html=1;rounded=0;" parent="1" edge="1">
          <mxGeometry width="50" height="50" relative="1" as="geometry">
            <mxPoint x="210" y="215" as="sourcePoint" />
            <mxPoint x="370" y="215" as="targetPoint" />
          </mxGeometry>
        </mxCell>
        <mxCell id="7iqt9CYVd9aHQICD8VI--28" value="&lt;font style=&quot;font-size: 24px;&quot;&gt;$$q_{d_{j}}$$&lt;/font&gt;" style="edgeLabel;html=1;align=center;verticalAlign=middle;resizable=0;points=[];labelBackgroundColor=none;" parent="7iqt9CYVd9aHQICD8VI--27" vertex="1" connectable="0">
          <mxGeometry x="0.0063" y="3" relative="1" as="geometry">
            <mxPoint y="-17" as="offset" />
          </mxGeometry>
        </mxCell>
        <mxCell id="7iqt9CYVd9aHQICD8VI--29" value="&lt;font style=&quot;font-size: 24px;&quot;&gt;+&lt;/font&gt;" style="edgeLabel;html=1;align=center;verticalAlign=middle;resizable=0;points=[];labelBackgroundColor=none;" parent="7iqt9CYVd9aHQICD8VI--27" vertex="1" connectable="0">
          <mxGeometry x="0.6781" relative="1" as="geometry">
            <mxPoint x="12" y="-11" as="offset" />
          </mxGeometry>
        </mxCell>
        <mxCell id="7iqt9CYVd9aHQICD8VI--30" value="&lt;font style=&quot;font-size: 24px;&quot;&gt;-&lt;/font&gt;" style="edgeLabel;html=1;align=center;verticalAlign=middle;resizable=0;points=[];labelBackgroundColor=none;" parent="1" vertex="1" connectable="0">
          <mxGeometry x="383.9966666666667" y="188" as="geometry">
            <mxPoint x="-3" y="1" as="offset" />
          </mxGeometry>
        </mxCell>
        <mxCell id="7iqt9CYVd9aHQICD8VI--31" value="&lt;font style=&quot;font-size: 24px;&quot;&gt;-&lt;/font&gt;" style="edgeLabel;html=1;align=center;verticalAlign=middle;resizable=0;points=[];labelBackgroundColor=none;" parent="1" vertex="1" connectable="0">
          <mxGeometry x="380.00222222222226" y="398" as="geometry" />
        </mxCell>
        <mxCell id="7iqt9CYVd9aHQICD8VI--33" value="&lt;font style=&quot;font-size: 24px;&quot;&gt;$$I_{q_{feedback_{j}}}$$&lt;/font&gt;" style="edgeLabel;html=1;align=center;verticalAlign=middle;resizable=0;points=[];labelBackgroundColor=none;" parent="1" vertex="1" connectable="0">
          <mxGeometry x="1160.004577899711" y="385.0033514424864" as="geometry" />
        </mxCell>
        <mxCell id="7iqt9CYVd9aHQICD8VI--34" value="" style="edgeStyle=orthogonalEdgeStyle;rounded=0;orthogonalLoop=1;jettySize=auto;html=1;exitX=1;exitY=0.5;exitDx=0;exitDy=0;entryX=0;entryY=0.5;entryDx=0;entryDy=0;" parent="1" source="7iqt9CYVd9aHQICD8VI--17" target="7iqt9CYVd9aHQICD8VI--36" edge="1">
          <mxGeometry relative="1" as="geometry">
            <mxPoint x="1383" y="285" as="sourcePoint" />
            <mxPoint x="1650" y="285" as="targetPoint" />
          </mxGeometry>
        </mxCell>
        <mxCell id="7iqt9CYVd9aHQICD8VI--35" value="&lt;font style=&quot;font-size: 24px;&quot;&gt;$$I_{q_{err_{j}}}$$&lt;/font&gt;" style="edgeLabel;html=1;align=center;verticalAlign=middle;resizable=0;points=[];labelBackgroundColor=none;" parent="7iqt9CYVd9aHQICD8VI--34" vertex="1" connectable="0">
          <mxGeometry x="-0.0817" y="-1" relative="1" as="geometry">
            <mxPoint y="-21" as="offset" />
          </mxGeometry>
        </mxCell>
        <mxCell id="7iqt9CYVd9aHQICD8VI--36" value="&lt;font style=&quot;font-size: 24px;&quot;&gt;$$I_{q} \ \text{PI Controller}$$&lt;/font&gt;" style="rounded=0;whiteSpace=wrap;html=1;" parent="1" vertex="1">
          <mxGeometry x="1290" y="265" width="220" height="60" as="geometry" />
        </mxCell>
        <mxCell id="7iqt9CYVd9aHQICD8VI--38" value="&lt;font style=&quot;font-size: 24px;&quot;&gt;+&lt;/font&gt;" style="edgeLabel;html=1;align=center;verticalAlign=middle;resizable=0;points=[];labelBackgroundColor=none;" parent="1" vertex="1" connectable="0">
          <mxGeometry x="1031.9952016668512" y="275.00465028925123" as="geometry">
            <mxPoint x="45" y="11" as="offset" />
          </mxGeometry>
        </mxCell>
        <mxCell id="7iqt9CYVd9aHQICD8VI--39" value="&lt;font style=&quot;font-size: 24px;&quot;&gt;-&lt;/font&gt;" style="edgeLabel;html=1;align=center;verticalAlign=middle;resizable=0;points=[];labelBackgroundColor=none;" parent="1" vertex="1" connectable="0">
          <mxGeometry x="390.00222222222226" y="408" as="geometry">
            <mxPoint x="711" y="-91" as="offset" />
          </mxGeometry>
        </mxCell>
        <mxCell id="7iqt9CYVd9aHQICD8VI--40" value="&lt;font style=&quot;font-size: 24px;&quot;&gt;$$K_{p}^{vel} \dot{e}_{j} + T_{\omega} K_{i}^{vel} \sum_{j = 0}^{k} \dot{e}_{j}$$&lt;/font&gt;" style="rounded=0;whiteSpace=wrap;html=1;" parent="1" vertex="1">
          <mxGeometry x="2570" y="255" width="330" height="90" as="geometry" />
        </mxCell>
        <mxCell id="7iqt9CYVd9aHQICD8VI--44" style="edgeStyle=orthogonalEdgeStyle;rounded=0;orthogonalLoop=1;jettySize=auto;html=1;exitX=1;exitY=0.5;exitDx=0;exitDy=0;entryX=0;entryY=0.5;entryDx=0;entryDy=0;" parent="1" target="7iqt9CYVd9aHQICD8VI--50" edge="1">
          <mxGeometry relative="1" as="geometry">
            <mxPoint x="2330" y="300" as="sourcePoint" />
          </mxGeometry>
        </mxCell>
        <mxCell id="7iqt9CYVd9aHQICD8VI--45" value="&lt;font style=&quot;font-size: 24px;&quot;&gt;$$\dot{q}_{d_{j}}$$&lt;/font&gt;" style="edgeLabel;html=1;align=center;verticalAlign=middle;resizable=0;points=[];labelBackgroundColor=none;" parent="7iqt9CYVd9aHQICD8VI--44" vertex="1" connectable="0">
          <mxGeometry x="-0.0483" y="1" relative="1" as="geometry">
            <mxPoint y="-19" as="offset" />
          </mxGeometry>
        </mxCell>
        <mxCell id="7iqt9CYVd9aHQICD8VI--46" value="&lt;font style=&quot;font-size: 24px;&quot;&gt;+&lt;/font&gt;" style="edgeLabel;html=1;align=center;verticalAlign=middle;resizable=0;points=[];labelBackgroundColor=none;" parent="7iqt9CYVd9aHQICD8VI--44" vertex="1" connectable="0">
          <mxGeometry x="0.7199" relative="1" as="geometry">
            <mxPoint y="-10" as="offset" />
          </mxGeometry>
        </mxCell>
        <mxCell id="7iqt9CYVd9aHQICD8VI--48" style="edgeStyle=orthogonalEdgeStyle;rounded=0;orthogonalLoop=1;jettySize=auto;html=1;exitX=1;exitY=0.5;exitDx=0;exitDy=0;entryX=0;entryY=0.5;entryDx=0;entryDy=0;" parent="1" source="7iqt9CYVd9aHQICD8VI--50" target="7iqt9CYVd9aHQICD8VI--40" edge="1">
          <mxGeometry relative="1" as="geometry" />
        </mxCell>
        <mxCell id="7iqt9CYVd9aHQICD8VI--49" value="&lt;font style=&quot;font-size: 24px;&quot;&gt;$$\dot{e}_{j}$$&lt;/font&gt;" style="edgeLabel;html=1;align=center;verticalAlign=middle;resizable=0;points=[];labelBackgroundColor=none;" parent="7iqt9CYVd9aHQICD8VI--48" vertex="1" connectable="0">
          <mxGeometry x="-0.0686" y="1" relative="1" as="geometry">
            <mxPoint y="-19" as="offset" />
          </mxGeometry>
        </mxCell>
        <mxCell id="7iqt9CYVd9aHQICD8VI--50" value="" style="shape=sumEllipse;perimeter=ellipsePerimeter;whiteSpace=wrap;html=1;backgroundOutline=1;" parent="1" vertex="1">
          <mxGeometry x="2430" y="280" width="40" height="40" as="geometry" />
        </mxCell>
        <mxCell id="7iqt9CYVd9aHQICD8VI--51" style="edgeStyle=orthogonalEdgeStyle;rounded=0;orthogonalLoop=1;jettySize=auto;html=1;exitX=1;exitY=0.5;exitDx=0;exitDy=0;entryX=0;entryY=0.5;entryDx=0;entryDy=0;" parent="1" source="7iqt9CYVd9aHQICD8VI--40" target="7iqt9CYVd9aHQICD8VI--56" edge="1">
          <mxGeometry relative="1" as="geometry" />
        </mxCell>
        <mxCell id="7iqt9CYVd9aHQICD8VI--52" value="&lt;font style=&quot;font-size: 24px;&quot;&gt;$$I_{q_{set_{j}}}$$&lt;/font&gt;" style="edgeLabel;html=1;align=center;verticalAlign=middle;resizable=0;points=[];labelBackgroundColor=none;" parent="7iqt9CYVd9aHQICD8VI--51" vertex="1" connectable="0">
          <mxGeometry x="-0.02" y="-1" relative="1" as="geometry">
            <mxPoint y="-21" as="offset" />
          </mxGeometry>
        </mxCell>
        <mxCell id="7iqt9CYVd9aHQICD8VI--53" value="&lt;font style=&quot;font-size: 24px;&quot;&gt;+&lt;/font&gt;" style="edgeLabel;html=1;align=center;verticalAlign=middle;resizable=0;points=[];labelBackgroundColor=none;" parent="7iqt9CYVd9aHQICD8VI--51" vertex="1" connectable="0">
          <mxGeometry x="0.7215" relative="1" as="geometry">
            <mxPoint x="-1" y="-10" as="offset" />
          </mxGeometry>
        </mxCell>
        <mxCell id="7iqt9CYVd9aHQICD8VI--54" style="edgeStyle=orthogonalEdgeStyle;rounded=0;orthogonalLoop=1;jettySize=auto;html=1;exitX=1;exitY=0.5;exitDx=0;exitDy=0;entryX=0;entryY=0.5;entryDx=0;entryDy=0;" parent="1" source="7iqt9CYVd9aHQICD8VI--75" target="7iqt9CYVd9aHQICD8VI--65" edge="1">
          <mxGeometry relative="1" as="geometry" />
        </mxCell>
        <mxCell id="7iqt9CYVd9aHQICD8VI--55" value="&lt;font style=&quot;font-size: 24px;&quot;&gt;$$V_{set_{j}}$$&lt;/font&gt;" style="edgeLabel;html=1;align=center;verticalAlign=middle;resizable=0;points=[];labelBackgroundColor=none;" parent="7iqt9CYVd9aHQICD8VI--54" vertex="1" connectable="0">
          <mxGeometry x="-0.0333" y="1" relative="1" as="geometry">
            <mxPoint y="-19" as="offset" />
          </mxGeometry>
        </mxCell>
        <mxCell id="7iqt9CYVd9aHQICD8VI--56" value="" style="shape=sumEllipse;perimeter=ellipsePerimeter;whiteSpace=wrap;html=1;backgroundOutline=1;" parent="1" vertex="1">
          <mxGeometry x="3003.42" y="280" width="40" height="40" as="geometry" />
        </mxCell>
        <mxCell id="7iqt9CYVd9aHQICD8VI--60" style="edgeStyle=orthogonalEdgeStyle;rounded=0;orthogonalLoop=1;jettySize=auto;html=1;exitX=0.5;exitY=1;exitDx=0;exitDy=0;entryX=0.5;entryY=1;entryDx=0;entryDy=0;" parent="1" source="7iqt9CYVd9aHQICD8VI--65" target="7iqt9CYVd9aHQICD8VI--50" edge="1">
          <mxGeometry relative="1" as="geometry">
            <Array as="points">
              <mxPoint x="3534" y="430" />
              <mxPoint x="2450" y="430" />
            </Array>
          </mxGeometry>
        </mxCell>
        <mxCell id="7iqt9CYVd9aHQICD8VI--61" value="&lt;font style=&quot;font-size: 18px;&quot;&gt;$$10\rm{kHz}$$&lt;/font&gt;" style="edgeLabel;html=1;align=center;verticalAlign=middle;resizable=0;points=[];labelBackgroundColor=none;" parent="7iqt9CYVd9aHQICD8VI--60" vertex="1" connectable="0">
          <mxGeometry x="-0.0125" relative="1" as="geometry">
            <mxPoint x="-12" y="20" as="offset" />
          </mxGeometry>
        </mxCell>
        <mxCell id="7iqt9CYVd9aHQICD8VI--62" value="&lt;font style=&quot;font-size: 24px;&quot;&gt;$$\dot{q}_{j} G_{\omega}$$&lt;/font&gt;" style="edgeLabel;html=1;align=center;verticalAlign=middle;resizable=0;points=[];labelBackgroundColor=none;" parent="7iqt9CYVd9aHQICD8VI--60" vertex="1" connectable="0">
          <mxGeometry x="0.8034" y="-1" relative="1" as="geometry">
            <mxPoint x="25" y="-69" as="offset" />
          </mxGeometry>
        </mxCell>
        <mxCell id="7iqt9CYVd9aHQICD8VI--63" style="edgeStyle=orthogonalEdgeStyle;rounded=0;orthogonalLoop=1;jettySize=auto;html=1;exitX=0.5;exitY=1;exitDx=0;exitDy=0;entryX=0.5;entryY=1;entryDx=0;entryDy=0;" parent="1" source="7iqt9CYVd9aHQICD8VI--65" target="7iqt9CYVd9aHQICD8VI--56" edge="1">
          <mxGeometry relative="1" as="geometry">
            <Array as="points">
              <mxPoint x="3534" y="380" />
              <mxPoint x="3023" y="380" />
            </Array>
          </mxGeometry>
        </mxCell>
        <mxCell id="7iqt9CYVd9aHQICD8VI--64" value="&lt;font style=&quot;font-size: 18px;&quot;&gt;$$20\rm{kHz}$$&lt;/font&gt;" style="edgeLabel;html=1;align=center;verticalAlign=middle;resizable=0;points=[];labelBackgroundColor=none;" parent="7iqt9CYVd9aHQICD8VI--63" vertex="1" connectable="0">
          <mxGeometry x="-0.1024" relative="1" as="geometry">
            <mxPoint x="-25" y="20" as="offset" />
          </mxGeometry>
        </mxCell>
        <mxCell id="7iqt9CYVd9aHQICD8VI--65" value="M" style="verticalLabelPosition=middle;shadow=0;dashed=0;align=center;html=1;verticalAlign=middle;strokeWidth=1;shape=ellipse;aspect=fixed;fontSize=35;" parent="1" vertex="1">
          <mxGeometry x="3484" y="250" width="100" height="100" as="geometry" />
        </mxCell>
        <mxCell id="7iqt9CYVd9aHQICD8VI--70" value="&lt;font style=&quot;font-size: 24px;&quot;&gt;-&lt;/font&gt;" style="edgeLabel;html=1;align=center;verticalAlign=middle;resizable=0;points=[];labelBackgroundColor=none;" parent="1" vertex="1" connectable="0">
          <mxGeometry x="2440.0022222222224" y="322.00000000000006" as="geometry" />
        </mxCell>
        <mxCell id="7iqt9CYVd9aHQICD8VI--71" value="&lt;font style=&quot;font-size: 24px;&quot;&gt;-&lt;/font&gt;" style="edgeLabel;html=1;align=center;verticalAlign=middle;resizable=0;points=[];labelBackgroundColor=none;" parent="1" vertex="1" connectable="0">
          <mxGeometry x="2866.0004201680676" y="294" as="geometry">
            <mxPoint x="148" y="28" as="offset" />
          </mxGeometry>
        </mxCell>
        <mxCell id="7iqt9CYVd9aHQICD8VI--72" value="&lt;font style=&quot;font-size: 24px;&quot;&gt;$$I_{q_{feedback_{j}}}$$&lt;/font&gt;" style="edgeLabel;html=1;align=center;verticalAlign=middle;resizable=0;points=[];labelBackgroundColor=none;" parent="1" vertex="1" connectable="0">
          <mxGeometry x="3071.004577899711" y="360.0033514424864" as="geometry" />
        </mxCell>
        <mxCell id="7iqt9CYVd9aHQICD8VI--73" value="" style="edgeStyle=orthogonalEdgeStyle;rounded=0;orthogonalLoop=1;jettySize=auto;html=1;exitX=1;exitY=0.5;exitDx=0;exitDy=0;entryX=0;entryY=0.5;entryDx=0;entryDy=0;" parent="1" source="7iqt9CYVd9aHQICD8VI--56" target="7iqt9CYVd9aHQICD8VI--75" edge="1">
          <mxGeometry relative="1" as="geometry">
            <mxPoint x="3043" y="300" as="sourcePoint" />
            <mxPoint x="3310" y="300" as="targetPoint" />
          </mxGeometry>
        </mxCell>
        <mxCell id="7iqt9CYVd9aHQICD8VI--74" value="&lt;font style=&quot;font-size: 24px;&quot;&gt;$$I_{q_{err_{j}}}$$&lt;/font&gt;" style="edgeLabel;html=1;align=center;verticalAlign=middle;resizable=0;points=[];labelBackgroundColor=none;" parent="7iqt9CYVd9aHQICD8VI--73" vertex="1" connectable="0">
          <mxGeometry x="-0.0817" y="-1" relative="1" as="geometry">
            <mxPoint y="-21" as="offset" />
          </mxGeometry>
        </mxCell>
        <mxCell id="7iqt9CYVd9aHQICD8VI--75" value="&lt;font style=&quot;font-size: 24px;&quot;&gt;$$I_{q} \ \text{PI Controller}$$&lt;/font&gt;" style="rounded=0;whiteSpace=wrap;html=1;" parent="1" vertex="1">
          <mxGeometry x="3150" y="270" width="220" height="60" as="geometry" />
        </mxCell>
        <mxCell id="7iqt9CYVd9aHQICD8VI--83" style="edgeStyle=orthogonalEdgeStyle;rounded=0;orthogonalLoop=1;jettySize=auto;html=1;exitX=1;exitY=0.5;exitDx=0;exitDy=0;entryX=0;entryY=0.5;entryDx=0;entryDy=0;" parent="1" target="7iqt9CYVd9aHQICD8VI--88" edge="1">
          <mxGeometry relative="1" as="geometry">
            <mxPoint x="2591" y="640" as="sourcePoint" />
          </mxGeometry>
        </mxCell>
        <mxCell id="7iqt9CYVd9aHQICD8VI--84" value="&lt;font style=&quot;font-size: 24px;&quot;&gt;$$I_{q_{set_{j}}}$$&lt;/font&gt;" style="edgeLabel;html=1;align=center;verticalAlign=middle;resizable=0;points=[];labelBackgroundColor=none;" parent="7iqt9CYVd9aHQICD8VI--83" vertex="1" connectable="0">
          <mxGeometry x="-0.02" y="-1" relative="1" as="geometry">
            <mxPoint x="-4" y="-22" as="offset" />
          </mxGeometry>
        </mxCell>
        <mxCell id="7iqt9CYVd9aHQICD8VI--85" value="&lt;font style=&quot;font-size: 24px;&quot;&gt;+&lt;/font&gt;" style="edgeLabel;html=1;align=center;verticalAlign=middle;resizable=0;points=[];labelBackgroundColor=none;" parent="7iqt9CYVd9aHQICD8VI--83" vertex="1" connectable="0">
          <mxGeometry x="0.7215" relative="1" as="geometry">
            <mxPoint x="-1" y="-10" as="offset" />
          </mxGeometry>
        </mxCell>
        <mxCell id="7iqt9CYVd9aHQICD8VI--86" style="edgeStyle=orthogonalEdgeStyle;rounded=0;orthogonalLoop=1;jettySize=auto;html=1;exitX=1;exitY=0.5;exitDx=0;exitDy=0;entryX=0;entryY=0.5;entryDx=0;entryDy=0;" parent="1" source="7iqt9CYVd9aHQICD8VI--100" target="7iqt9CYVd9aHQICD8VI--94" edge="1">
          <mxGeometry relative="1" as="geometry" />
        </mxCell>
        <mxCell id="7iqt9CYVd9aHQICD8VI--87" value="&lt;font style=&quot;font-size: 24px;&quot;&gt;$$V_{set_{j}}$$&lt;/font&gt;" style="edgeLabel;html=1;align=center;verticalAlign=middle;resizable=0;points=[];labelBackgroundColor=none;" parent="7iqt9CYVd9aHQICD8VI--86" vertex="1" connectable="0">
          <mxGeometry x="-0.0333" y="1" relative="1" as="geometry">
            <mxPoint y="-19" as="offset" />
          </mxGeometry>
        </mxCell>
        <mxCell id="7iqt9CYVd9aHQICD8VI--88" value="" style="shape=sumEllipse;perimeter=ellipsePerimeter;whiteSpace=wrap;html=1;backgroundOutline=1;" parent="1" vertex="1">
          <mxGeometry x="2694.42" y="620" width="40" height="40" as="geometry" />
        </mxCell>
        <mxCell id="7iqt9CYVd9aHQICD8VI--92" style="edgeStyle=orthogonalEdgeStyle;rounded=0;orthogonalLoop=1;jettySize=auto;html=1;exitX=0.5;exitY=1;exitDx=0;exitDy=0;entryX=0.5;entryY=1;entryDx=0;entryDy=0;" parent="1" source="7iqt9CYVd9aHQICD8VI--94" target="7iqt9CYVd9aHQICD8VI--88" edge="1">
          <mxGeometry relative="1" as="geometry">
            <Array as="points">
              <mxPoint x="3225" y="720" />
              <mxPoint x="2714" y="720" />
            </Array>
          </mxGeometry>
        </mxCell>
        <mxCell id="7iqt9CYVd9aHQICD8VI--93" value="&lt;font style=&quot;font-size: 18px;&quot;&gt;$$20\rm{kHz}$$&lt;/font&gt;" style="edgeLabel;html=1;align=center;verticalAlign=middle;resizable=0;points=[];labelBackgroundColor=none;" parent="7iqt9CYVd9aHQICD8VI--92" vertex="1" connectable="0">
          <mxGeometry x="-0.1024" relative="1" as="geometry">
            <mxPoint x="-25" y="20" as="offset" />
          </mxGeometry>
        </mxCell>
        <mxCell id="7iqt9CYVd9aHQICD8VI--94" value="M" style="verticalLabelPosition=middle;shadow=0;dashed=0;align=center;html=1;verticalAlign=middle;strokeWidth=1;shape=ellipse;aspect=fixed;fontSize=35;" parent="1" vertex="1">
          <mxGeometry x="3175" y="590" width="100" height="100" as="geometry" />
        </mxCell>
        <mxCell id="7iqt9CYVd9aHQICD8VI--97" value="&lt;font style=&quot;font-size: 24px;&quot;&gt;$$I_{q_{feedback_{j}}}$$&lt;/font&gt;" style="edgeLabel;html=1;align=center;verticalAlign=middle;resizable=0;points=[];labelBackgroundColor=none;" parent="1" vertex="1" connectable="0">
          <mxGeometry x="2768.004577899711" y="700.0033514424864" as="geometry" />
        </mxCell>
        <mxCell id="7iqt9CYVd9aHQICD8VI--98" value="" style="edgeStyle=orthogonalEdgeStyle;rounded=0;orthogonalLoop=1;jettySize=auto;html=1;exitX=1;exitY=0.5;exitDx=0;exitDy=0;entryX=0;entryY=0.5;entryDx=0;entryDy=0;" parent="1" source="7iqt9CYVd9aHQICD8VI--88" target="7iqt9CYVd9aHQICD8VI--100" edge="1">
          <mxGeometry relative="1" as="geometry">
            <mxPoint x="2734" y="640" as="sourcePoint" />
            <mxPoint x="3001" y="640" as="targetPoint" />
          </mxGeometry>
        </mxCell>
        <mxCell id="7iqt9CYVd9aHQICD8VI--99" value="&lt;font style=&quot;font-size: 24px;&quot;&gt;$$I_{q_{err_{j}}}$$&lt;/font&gt;" style="edgeLabel;html=1;align=center;verticalAlign=middle;resizable=0;points=[];labelBackgroundColor=none;" parent="7iqt9CYVd9aHQICD8VI--98" vertex="1" connectable="0">
          <mxGeometry x="-0.0817" y="-1" relative="1" as="geometry">
            <mxPoint y="-21" as="offset" />
          </mxGeometry>
        </mxCell>
        <mxCell id="7iqt9CYVd9aHQICD8VI--100" value="&lt;font style=&quot;font-size: 24px;&quot;&gt;$$I_{q} \ \text{PI Controller}$$&lt;/font&gt;" style="rounded=0;whiteSpace=wrap;html=1;" parent="1" vertex="1">
          <mxGeometry x="2841" y="610" width="220" height="60" as="geometry" />
        </mxCell>
        <mxCell id="IUHxeoM_2d-V4T1mOisW-2" value="&lt;font style=&quot;font-size: 24px;&quot;&gt;-&lt;/font&gt;" style="edgeLabel;html=1;align=center;verticalAlign=middle;resizable=0;points=[];labelBackgroundColor=none;" parent="1" vertex="1" connectable="0">
          <mxGeometry x="2704.002139716821" y="662" as="geometry" />
        </mxCell>
        <mxCell id="6_v7ENSinql-Y-FxFYar-79" style="edgeStyle=orthogonalEdgeStyle;rounded=0;orthogonalLoop=1;jettySize=auto;html=1;entryX=0.5;entryY=1;entryDx=0;entryDy=0;" parent="1" source="6_v7ENSinql-Y-FxFYar-38" target="6_v7ENSinql-Y-FxFYar-77" edge="1">
          <mxGeometry relative="1" as="geometry" />
        </mxCell>
        <mxCell id="6_v7ENSinql-Y-FxFYar-38" value="&lt;font style=&quot;font-size: 24px;&quot;&gt;$$K_{d}^{pd}G_{pd}\cdot \dot{e}$$&lt;/font&gt;" style="rounded=0;whiteSpace=wrap;html=1;" parent="1" vertex="1">
          <mxGeometry x="530" y="1700.75" width="160" height="68.5" as="geometry" />
        </mxCell>
        <mxCell id="6_v7ENSinql-Y-FxFYar-39" style="edgeStyle=orthogonalEdgeStyle;rounded=0;orthogonalLoop=1;jettySize=auto;html=1;exitX=1;exitY=0.5;exitDx=0;exitDy=0;entryX=0;entryY=0.5;entryDx=0;entryDy=0;" parent="1" source="6_v7ENSinql-Y-FxFYar-41" target="6_v7ENSinql-Y-FxFYar-46" edge="1">
          <mxGeometry relative="1" as="geometry" />
        </mxCell>
        <mxCell id="6_v7ENSinql-Y-FxFYar-40" value="&lt;font style=&quot;font-size: 24px;&quot;&gt;$$e$$&lt;/font&gt;" style="edgeLabel;html=1;align=center;verticalAlign=middle;resizable=0;points=[];labelBackgroundColor=none;" parent="6_v7ENSinql-Y-FxFYar-39" vertex="1" connectable="0">
          <mxGeometry x="-0.0841" relative="1" as="geometry">
            <mxPoint x="-43" y="11" as="offset" />
          </mxGeometry>
        </mxCell>
        <mxCell id="6_v7ENSinql-Y-FxFYar-41" value="" style="shape=sumEllipse;perimeter=ellipsePerimeter;whiteSpace=wrap;html=1;backgroundOutline=1;" parent="1" vertex="1">
          <mxGeometry x="380" y="1500" width="40" height="40" as="geometry" />
        </mxCell>
        <mxCell id="6_v7ENSinql-Y-FxFYar-42" style="edgeStyle=orthogonalEdgeStyle;rounded=0;orthogonalLoop=1;jettySize=auto;html=1;" parent="1" edge="1">
          <mxGeometry relative="1" as="geometry">
            <mxPoint x="200" y="1735" as="sourcePoint" />
            <mxPoint x="380" y="1735.3500000000001" as="targetPoint" />
            <Array as="points">
              <mxPoint x="240" y="1735" />
            </Array>
          </mxGeometry>
        </mxCell>
        <mxCell id="6_v7ENSinql-Y-FxFYar-43" value="&lt;span style=&quot;font-size: 24px;&quot;&gt;$$\dot{q}_{d}$$&lt;/span&gt;" style="edgeLabel;html=1;align=center;verticalAlign=middle;resizable=0;points=[];labelBackgroundColor=none;" parent="6_v7ENSinql-Y-FxFYar-42" vertex="1" connectable="0">
          <mxGeometry x="-0.0483" y="1" relative="1" as="geometry">
            <mxPoint x="4" y="-19" as="offset" />
          </mxGeometry>
        </mxCell>
        <mxCell id="6_v7ENSinql-Y-FxFYar-44" value="&lt;font style=&quot;font-size: 24px;&quot;&gt;+&lt;/font&gt;" style="edgeLabel;html=1;align=center;verticalAlign=middle;resizable=0;points=[];labelBackgroundColor=none;" parent="6_v7ENSinql-Y-FxFYar-42" vertex="1" connectable="0">
          <mxGeometry x="0.7199" relative="1" as="geometry">
            <mxPoint x="17" y="-20" as="offset" />
          </mxGeometry>
        </mxCell>
        <mxCell id="6_v7ENSinql-Y-FxFYar-78" style="edgeStyle=orthogonalEdgeStyle;rounded=0;orthogonalLoop=1;jettySize=auto;html=1;entryX=0.5;entryY=0;entryDx=0;entryDy=0;" parent="1" source="6_v7ENSinql-Y-FxFYar-46" target="6_v7ENSinql-Y-FxFYar-77" edge="1">
          <mxGeometry relative="1" as="geometry" />
        </mxCell>
        <mxCell id="6_v7ENSinql-Y-FxFYar-46" value="&lt;font style=&quot;font-size: 24px;&quot;&gt;$$K_{p}^{pd} G_{pd}\cdot e$$&lt;/font&gt;" style="rounded=0;whiteSpace=wrap;html=1;" parent="1" vertex="1">
          <mxGeometry x="530" y="1485" width="160" height="70" as="geometry" />
        </mxCell>
        <mxCell id="6_v7ENSinql-Y-FxFYar-47" style="edgeStyle=orthogonalEdgeStyle;rounded=0;orthogonalLoop=1;jettySize=auto;html=1;exitX=1;exitY=0.5;exitDx=0;exitDy=0;entryX=0;entryY=0.5;entryDx=0;entryDy=0;" parent="1" source="6_v7ENSinql-Y-FxFYar-49" target="6_v7ENSinql-Y-FxFYar-38" edge="1">
          <mxGeometry relative="1" as="geometry">
            <Array as="points" />
            <mxPoint x="520" y="1734.8600000000001" as="sourcePoint" />
            <mxPoint x="630" y="1734.8600000000001" as="targetPoint" />
          </mxGeometry>
        </mxCell>
        <mxCell id="6_v7ENSinql-Y-FxFYar-48" value="&lt;font style=&quot;font-size: 24px;&quot;&gt;$$\dot{e}$$&lt;/font&gt;" style="edgeLabel;html=1;align=center;verticalAlign=middle;resizable=0;points=[];labelBackgroundColor=none;" parent="6_v7ENSinql-Y-FxFYar-47" vertex="1" connectable="0">
          <mxGeometry x="-0.0686" y="1" relative="1" as="geometry">
            <mxPoint x="-8" y="-9" as="offset" />
          </mxGeometry>
        </mxCell>
        <mxCell id="6_v7ENSinql-Y-FxFYar-49" value="" style="shape=sumEllipse;perimeter=ellipsePerimeter;whiteSpace=wrap;html=1;backgroundOutline=1;" parent="1" vertex="1">
          <mxGeometry x="380" y="1715" width="40" height="40" as="geometry" />
        </mxCell>
        <mxCell id="6_v7ENSinql-Y-FxFYar-52" style="edgeStyle=orthogonalEdgeStyle;rounded=0;orthogonalLoop=1;jettySize=auto;html=1;exitX=1;exitY=0.5;exitDx=0;exitDy=0;entryX=0;entryY=0.5;entryDx=0;entryDy=0;" parent="1" source="6_v7ENSinql-Y-FxFYar-72" target="6_v7ENSinql-Y-FxFYar-63" edge="1">
          <mxGeometry relative="1" as="geometry">
            <mxPoint x="2010" y="1610.0000000000002" as="targetPoint" />
          </mxGeometry>
        </mxCell>
        <mxCell id="6_v7ENSinql-Y-FxFYar-53" value="&lt;font style=&quot;font-size: 24px;&quot;&gt;$$V_{set}$$&lt;/font&gt;" style="edgeLabel;html=1;align=center;verticalAlign=middle;resizable=0;points=[];labelBackgroundColor=none;" parent="6_v7ENSinql-Y-FxFYar-52" vertex="1" connectable="0">
          <mxGeometry x="-0.0333" y="1" relative="1" as="geometry">
            <mxPoint y="-19" as="offset" />
          </mxGeometry>
        </mxCell>
        <mxCell id="6_v7ENSinql-Y-FxFYar-54" value="" style="shape=sumEllipse;perimeter=ellipsePerimeter;whiteSpace=wrap;html=1;backgroundOutline=1;" parent="1" vertex="1">
          <mxGeometry x="1336" y="1600" width="40" height="40" as="geometry" />
        </mxCell>
        <mxCell id="6_v7ENSinql-Y-FxFYar-55" style="edgeStyle=orthogonalEdgeStyle;rounded=0;orthogonalLoop=1;jettySize=auto;html=1;exitX=0.5;exitY=0;exitDx=0;exitDy=0;" parent="1" edge="1" target="6_v7ENSinql-Y-FxFYar-41" source="6_v7ENSinql-Y-FxFYar-63">
          <mxGeometry relative="1" as="geometry">
            <Array as="points">
              <mxPoint x="1896" y="1450" />
              <mxPoint x="400" y="1450" />
            </Array>
            <mxPoint x="2119" y="1570" as="sourcePoint" />
            <mxPoint x="400" y="1500" as="targetPoint" />
          </mxGeometry>
        </mxCell>
        <mxCell id="6_v7ENSinql-Y-FxFYar-56" value="&lt;font style=&quot;font-size: 18px;&quot;&gt;$$default:10\rm{kHz}$$&lt;/font&gt;" style="edgeLabel;html=1;align=center;verticalAlign=middle;resizable=0;points=[];labelBackgroundColor=none;" parent="6_v7ENSinql-Y-FxFYar-55" vertex="1" connectable="0">
          <mxGeometry x="-0.0107" y="1" relative="1" as="geometry">
            <mxPoint x="-35" y="19" as="offset" />
          </mxGeometry>
        </mxCell>
        <mxCell id="6_v7ENSinql-Y-FxFYar-57" value="&lt;font style=&quot;font-size: 24px;&quot;&gt;$$q$$&lt;/font&gt;" style="edgeLabel;html=1;align=center;verticalAlign=middle;resizable=0;points=[];labelBackgroundColor=none;" parent="6_v7ENSinql-Y-FxFYar-55" vertex="1" connectable="0">
          <mxGeometry x="0.8866" relative="1" as="geometry">
            <mxPoint x="4" y="20" as="offset" />
          </mxGeometry>
        </mxCell>
        <mxCell id="6_v7ENSinql-Y-FxFYar-58" style="edgeStyle=orthogonalEdgeStyle;rounded=0;orthogonalLoop=1;jettySize=auto;html=1;exitX=0.5;exitY=1;exitDx=0;exitDy=0;entryX=0.5;entryY=1;entryDx=0;entryDy=0;" parent="1" source="6_v7ENSinql-Y-FxFYar-63" target="6_v7ENSinql-Y-FxFYar-49" edge="1">
          <mxGeometry relative="1" as="geometry">
            <Array as="points">
              <mxPoint x="1896" y="1840" />
              <mxPoint x="400" y="1840" />
            </Array>
            <mxPoint x="1681" y="1620" as="sourcePoint" />
            <mxPoint x="197" y="1750" as="targetPoint" />
          </mxGeometry>
        </mxCell>
        <mxCell id="6_v7ENSinql-Y-FxFYar-59" value="&lt;font style=&quot;font-size: 18px;&quot;&gt;$$default:10\rm{kHz}$$&lt;/font&gt;" style="edgeLabel;html=1;align=center;verticalAlign=middle;resizable=0;points=[];labelBackgroundColor=none;" parent="6_v7ENSinql-Y-FxFYar-58" vertex="1" connectable="0">
          <mxGeometry x="-0.0125" relative="1" as="geometry">
            <mxPoint x="-32" y="-20" as="offset" />
          </mxGeometry>
        </mxCell>
        <mxCell id="6_v7ENSinql-Y-FxFYar-60" value="&lt;font style=&quot;font-size: 24px;&quot;&gt;$$\dot{q} G_{\omega}$$&lt;/font&gt;" style="edgeLabel;html=1;align=center;verticalAlign=middle;resizable=0;points=[];labelBackgroundColor=none;" parent="6_v7ENSinql-Y-FxFYar-58" vertex="1" connectable="0">
          <mxGeometry x="0.8034" y="-1" relative="1" as="geometry">
            <mxPoint x="-30" y="-19" as="offset" />
          </mxGeometry>
        </mxCell>
        <mxCell id="6_v7ENSinql-Y-FxFYar-61" style="edgeStyle=orthogonalEdgeStyle;rounded=0;orthogonalLoop=1;jettySize=auto;html=1;entryX=0.5;entryY=1;entryDx=0;entryDy=0;" parent="1" target="6_v7ENSinql-Y-FxFYar-54" edge="1">
          <mxGeometry relative="1" as="geometry">
            <Array as="points">
              <mxPoint x="1896" y="1730" />
              <mxPoint x="1356" y="1730" />
            </Array>
            <mxPoint x="1896" y="1670" as="sourcePoint" />
          </mxGeometry>
        </mxCell>
        <mxCell id="6_v7ENSinql-Y-FxFYar-62" value="&lt;font style=&quot;font-size: 18px;&quot;&gt;$$20\rm{kHz}$$&lt;/font&gt;" style="edgeLabel;html=1;align=center;verticalAlign=middle;resizable=0;points=[];labelBackgroundColor=none;" parent="6_v7ENSinql-Y-FxFYar-61" vertex="1" connectable="0">
          <mxGeometry x="-0.1024" relative="1" as="geometry">
            <mxPoint x="-34" y="21" as="offset" />
          </mxGeometry>
        </mxCell>
        <mxCell id="6_v7ENSinql-Y-FxFYar-63" value="M" style="verticalLabelPosition=middle;shadow=0;dashed=0;align=center;html=1;verticalAlign=middle;strokeWidth=1;shape=ellipse;aspect=fixed;fontSize=35;" parent="1" vertex="1">
          <mxGeometry x="1846" y="1570" width="100" height="100" as="geometry" />
        </mxCell>
        <mxCell id="6_v7ENSinql-Y-FxFYar-64" value="" style="endArrow=classic;html=1;rounded=0;entryX=0;entryY=0.5;entryDx=0;entryDy=0;" parent="1" edge="1" target="6_v7ENSinql-Y-FxFYar-41">
          <mxGeometry width="50" height="50" relative="1" as="geometry">
            <mxPoint x="200" y="1520" as="sourcePoint" />
            <mxPoint x="218" y="1520" as="targetPoint" />
          </mxGeometry>
        </mxCell>
        <mxCell id="6_v7ENSinql-Y-FxFYar-65" value="&lt;font style=&quot;font-size: 24px;&quot;&gt;$$q_{d}$$&lt;/font&gt;" style="edgeLabel;html=1;align=center;verticalAlign=middle;resizable=0;points=[];labelBackgroundColor=none;" parent="6_v7ENSinql-Y-FxFYar-64" vertex="1" connectable="0">
          <mxGeometry x="0.0063" y="3" relative="1" as="geometry">
            <mxPoint y="-17" as="offset" />
          </mxGeometry>
        </mxCell>
        <mxCell id="6_v7ENSinql-Y-FxFYar-66" value="&lt;font style=&quot;font-size: 24px;&quot;&gt;+&lt;/font&gt;" style="edgeLabel;html=1;align=center;verticalAlign=middle;resizable=0;points=[];labelBackgroundColor=none;" parent="6_v7ENSinql-Y-FxFYar-64" vertex="1" connectable="0">
          <mxGeometry x="0.6781" relative="1" as="geometry">
            <mxPoint x="18" y="-20" as="offset" />
          </mxGeometry>
        </mxCell>
        <mxCell id="6_v7ENSinql-Y-FxFYar-67" value="&lt;font style=&quot;font-size: 24px;&quot;&gt;-&lt;/font&gt;" style="edgeLabel;html=1;align=center;verticalAlign=middle;resizable=0;points=[];labelBackgroundColor=none;" parent="1" vertex="1" connectable="0">
          <mxGeometry x="258.9966666666667" y="1488" as="geometry">
            <mxPoint x="-3" y="1" as="offset" />
          </mxGeometry>
        </mxCell>
        <mxCell id="6_v7ENSinql-Y-FxFYar-68" value="&lt;font style=&quot;font-size: 24px;&quot;&gt;-&lt;/font&gt;" style="edgeLabel;html=1;align=center;verticalAlign=middle;resizable=0;points=[];labelBackgroundColor=none;" parent="1" vertex="1" connectable="0">
          <mxGeometry x="370.00222222222226" y="1760" as="geometry" />
        </mxCell>
        <mxCell id="6_v7ENSinql-Y-FxFYar-69" value="&lt;font style=&quot;font-size: 24px;&quot;&gt;$$I_{q_{feedback}}$$&lt;/font&gt;" style="edgeLabel;html=1;align=center;verticalAlign=middle;resizable=0;points=[];labelBackgroundColor=none;" parent="1" vertex="1" connectable="0">
          <mxGeometry x="1399.004577899711" y="1690.0033514424863" as="geometry" />
        </mxCell>
        <mxCell id="6_v7ENSinql-Y-FxFYar-70" value="" style="edgeStyle=orthogonalEdgeStyle;rounded=0;orthogonalLoop=1;jettySize=auto;html=1;exitX=1;exitY=0.5;exitDx=0;exitDy=0;entryX=0;entryY=0.5;entryDx=0;entryDy=0;" parent="1" source="6_v7ENSinql-Y-FxFYar-54" target="6_v7ENSinql-Y-FxFYar-72" edge="1">
          <mxGeometry relative="1" as="geometry">
            <mxPoint x="1569" y="1610" as="sourcePoint" />
            <mxPoint x="1836" y="1610" as="targetPoint" />
          </mxGeometry>
        </mxCell>
        <mxCell id="6_v7ENSinql-Y-FxFYar-71" value="&lt;font style=&quot;font-size: 24px;&quot;&gt;$$I_{q_{err}}$$&lt;/font&gt;" style="edgeLabel;html=1;align=center;verticalAlign=middle;resizable=0;points=[];labelBackgroundColor=none;" parent="6_v7ENSinql-Y-FxFYar-70" vertex="1" connectable="0">
          <mxGeometry x="-0.0817" y="-1" relative="1" as="geometry">
            <mxPoint y="-21" as="offset" />
          </mxGeometry>
        </mxCell>
        <mxCell id="6_v7ENSinql-Y-FxFYar-72" value="&lt;font style=&quot;font-size: 24px;&quot;&gt;$$I_{q} \ \text{PI Controller}$$&lt;/font&gt;" style="rounded=0;whiteSpace=wrap;html=1;" parent="1" vertex="1">
          <mxGeometry x="1506" y="1590" width="220" height="60" as="geometry" />
        </mxCell>
        <mxCell id="6_v7ENSinql-Y-FxFYar-73" value="&lt;font style=&quot;font-size: 24px;&quot;&gt;+&lt;/font&gt;" style="edgeLabel;html=1;align=center;verticalAlign=middle;resizable=0;points=[];labelBackgroundColor=none;" parent="1" vertex="1" connectable="0">
          <mxGeometry x="1282.9952016668512" y="1589.0046502892512" as="geometry">
            <mxPoint x="45" y="11" as="offset" />
          </mxGeometry>
        </mxCell>
        <mxCell id="6_v7ENSinql-Y-FxFYar-74" value="&lt;font style=&quot;font-size: 24px;&quot;&gt;-&lt;/font&gt;" style="edgeLabel;html=1;align=center;verticalAlign=middle;resizable=0;points=[];labelBackgroundColor=none;" parent="1" vertex="1" connectable="0">
          <mxGeometry x="687.0022222222223" y="1738" as="geometry">
            <mxPoint x="711" y="-91" as="offset" />
          </mxGeometry>
        </mxCell>
        <mxCell id="6_v7ENSinql-Y-FxFYar-75" value="PD:V2" style="whiteSpace=wrap;html=1;" parent="1" vertex="1">
          <mxGeometry x="387" y="1250" width="120" height="60" as="geometry" />
        </mxCell>
        <mxCell id="6_v7ENSinql-Y-FxFYar-80" style="edgeStyle=orthogonalEdgeStyle;rounded=0;orthogonalLoop=1;jettySize=auto;html=1;entryX=0;entryY=0.5;entryDx=0;entryDy=0;" parent="1" source="XVKnGSUtW4uQzRevY20M-3" target="6_v7ENSinql-Y-FxFYar-94" edge="1">
          <mxGeometry relative="1" as="geometry">
            <mxPoint x="947" y="1620" as="targetPoint" />
          </mxGeometry>
        </mxCell>
        <mxCell id="6_v7ENSinql-Y-FxFYar-77" value="" style="shape=sumEllipse;perimeter=ellipsePerimeter;whiteSpace=wrap;html=1;backgroundOutline=1;" parent="1" vertex="1">
          <mxGeometry x="769" y="1600" width="40" height="40" as="geometry" />
        </mxCell>
        <mxCell id="6_v7ENSinql-Y-FxFYar-83" value="&lt;font style=&quot;font-size: 24px;&quot;&gt;+&lt;/font&gt;" style="edgeLabel;html=1;align=center;verticalAlign=middle;resizable=0;points=[];labelBackgroundColor=none;" parent="1" vertex="1" connectable="0">
          <mxGeometry x="726.9952016668512" y="1582.0046502892512" as="geometry">
            <mxPoint x="82" y="10" as="offset" />
          </mxGeometry>
        </mxCell>
        <mxCell id="6_v7ENSinql-Y-FxFYar-84" value="&lt;font style=&quot;font-size: 24px;&quot;&gt;+&lt;/font&gt;" style="edgeLabel;html=1;align=center;verticalAlign=middle;resizable=0;points=[];labelBackgroundColor=none;" parent="1" vertex="1" connectable="0">
          <mxGeometry x="686.0052016668512" y="1639.0046502892512" as="geometry">
            <mxPoint x="82" y="10" as="offset" />
          </mxGeometry>
        </mxCell>
        <mxCell id="6_v7ENSinql-Y-FxFYar-86" style="edgeStyle=orthogonalEdgeStyle;rounded=0;orthogonalLoop=1;jettySize=auto;html=1;exitX=1;exitY=0.5;exitDx=0;exitDy=0;" parent="1" source="6_v7ENSinql-Y-FxFYar-94" target="6_v7ENSinql-Y-FxFYar-54" edge="1">
          <mxGeometry relative="1" as="geometry">
            <mxPoint x="1207" y="1620" as="sourcePoint" />
          </mxGeometry>
        </mxCell>
        <mxCell id="6_v7ENSinql-Y-FxFYar-90" style="edgeStyle=orthogonalEdgeStyle;rounded=0;orthogonalLoop=1;jettySize=auto;html=1;" parent="1" edge="1">
          <mxGeometry relative="1" as="geometry">
            <mxPoint x="200" y="1620" as="sourcePoint" />
            <mxPoint x="767" y="1620" as="targetPoint" />
          </mxGeometry>
        </mxCell>
        <mxCell id="6_v7ENSinql-Y-FxFYar-91" value="&lt;span style=&quot;font-size: 24px;&quot;&gt;$$T_{d}$$&lt;/span&gt;" style="edgeLabel;html=1;align=center;verticalAlign=middle;resizable=0;points=[];labelBackgroundColor=none;" parent="6_v7ENSinql-Y-FxFYar-90" vertex="1" connectable="0">
          <mxGeometry x="-0.0483" y="1" relative="1" as="geometry">
            <mxPoint x="-173" y="-28" as="offset" />
          </mxGeometry>
        </mxCell>
        <mxCell id="6_v7ENSinql-Y-FxFYar-93" value="&lt;font style=&quot;font-size: 24px;&quot;&gt;+&lt;/font&gt;" style="edgeLabel;html=1;align=center;verticalAlign=middle;resizable=0;points=[];labelBackgroundColor=none;" parent="1" vertex="1" connectable="0">
          <mxGeometry x="677.0052016668512" y="1591.0046502892512" as="geometry">
            <mxPoint x="82" y="10" as="offset" />
          </mxGeometry>
        </mxCell>
        <mxCell id="6_v7ENSinql-Y-FxFYar-94" value="&lt;font style=&quot;font-size: 24px;&quot;&gt;Torque to Current&lt;/font&gt;" style="rounded=0;whiteSpace=wrap;html=1;" parent="1" vertex="1">
          <mxGeometry x="1124" y="1589" width="117" height="60" as="geometry" />
        </mxCell>
        <mxCell id="6_v7ENSinql-Y-FxFYar-96" value="&lt;span style=&quot;font-size: 24px;&quot;&gt;$$T_{set}$$&lt;/span&gt;" style="edgeLabel;html=1;align=center;verticalAlign=middle;resizable=0;points=[];labelBackgroundColor=none;" parent="1" vertex="1" connectable="0">
          <mxGeometry x="1049.9996375012822" y="1600.0039975821524" as="geometry">
            <mxPoint x="16" as="offset" />
          </mxGeometry>
        </mxCell>
        <mxCell id="6_v7ENSinql-Y-FxFYar-97" value="&lt;span style=&quot;font-size: 24px;&quot;&gt;$$I_{q_{set}}$$&lt;/span&gt;" style="edgeLabel;html=1;align=center;verticalAlign=middle;resizable=0;points=[];labelBackgroundColor=none;" parent="1" vertex="1" connectable="0">
          <mxGeometry x="1298.9996375012822" y="1620.0039975821524" as="geometry">
            <mxPoint x="-17" y="-16" as="offset" />
          </mxGeometry>
        </mxCell>
        <mxCell id="XVKnGSUtW4uQzRevY20M-4" value="" style="edgeStyle=orthogonalEdgeStyle;rounded=0;orthogonalLoop=1;jettySize=auto;html=1;entryX=0;entryY=0.5;entryDx=0;entryDy=0;" parent="1" source="6_v7ENSinql-Y-FxFYar-77" target="XVKnGSUtW4uQzRevY20M-3" edge="1">
          <mxGeometry relative="1" as="geometry">
            <mxPoint x="1077" y="1620" as="targetPoint" />
            <mxPoint x="809" y="1620" as="sourcePoint" />
          </mxGeometry>
        </mxCell>
        <mxCell id="XVKnGSUtW4uQzRevY20M-3" value="&lt;font style=&quot;font-size: 24px;&quot;&gt;$$Torque$$&lt;/font&gt;&lt;span style=&quot;font-size: 24px; background-color: initial;&quot;&gt;$$Limit$$&lt;/span&gt;" style="rounded=0;whiteSpace=wrap;html=1;fontSize=17;fontStyle=1;verticalAlign=middle;spacingTop=1;spacing=1;" parent="1" vertex="1">
          <mxGeometry x="920" y="1515" width="110" height="210" as="geometry" />
        </mxCell>
        <mxCell id="Sm2g18OlGwMvtYHWyO0--37" value="&lt;font style=&quot;font-size: 24px;&quot;&gt;$$K_{p}^{vel} \dot{e} + T_{\omega} K_{i}^{vel}\int{e}$$&lt;/font&gt;" style="rounded=0;whiteSpace=wrap;html=1;" parent="1" vertex="1">
          <mxGeometry x="3453" y="1505" width="248" height="90" as="geometry" />
        </mxCell>
        <mxCell id="Sm2g18OlGwMvtYHWyO0--38" style="edgeStyle=orthogonalEdgeStyle;rounded=0;orthogonalLoop=1;jettySize=auto;html=1;exitX=1;exitY=0.5;exitDx=0;exitDy=0;entryX=0;entryY=0.5;entryDx=0;entryDy=0;" parent="1" source="Sm2g18OlGwMvtYHWyO0--40" target="Sm2g18OlGwMvtYHWyO0--44" edge="1">
          <mxGeometry relative="1" as="geometry" />
        </mxCell>
        <mxCell id="Sm2g18OlGwMvtYHWyO0--39" value="&lt;font style=&quot;font-size: 24px;&quot;&gt;$$e$$&lt;/font&gt;" style="edgeLabel;html=1;align=center;verticalAlign=middle;resizable=0;points=[];labelBackgroundColor=none;" parent="Sm2g18OlGwMvtYHWyO0--38" vertex="1" connectable="0">
          <mxGeometry x="-0.0841" relative="1" as="geometry">
            <mxPoint y="-20" as="offset" />
          </mxGeometry>
        </mxCell>
        <mxCell id="Sm2g18OlGwMvtYHWyO0--40" value="" style="shape=sumEllipse;perimeter=ellipsePerimeter;whiteSpace=wrap;html=1;backgroundOutline=1;" parent="1" vertex="1">
          <mxGeometry x="2701" y="1530" width="40" height="40" as="geometry" />
        </mxCell>
        <mxCell id="Sm2g18OlGwMvtYHWyO0--41" style="edgeStyle=orthogonalEdgeStyle;rounded=0;orthogonalLoop=1;jettySize=auto;html=1;exitX=1;exitY=0.5;exitDx=0;exitDy=0;entryX=0;entryY=0.5;entryDx=0;entryDy=0;" parent="1" source="Sm2g18OlGwMvtYHWyO0--73" target="Sm2g18OlGwMvtYHWyO0--47" edge="1">
          <mxGeometry relative="1" as="geometry" />
        </mxCell>
        <mxCell id="Sm2g18OlGwMvtYHWyO0--43" value="&lt;font style=&quot;font-size: 24px;&quot;&gt;+&lt;/font&gt;" style="edgeLabel;html=1;align=center;verticalAlign=middle;resizable=0;points=[];labelBackgroundColor=none;" parent="Sm2g18OlGwMvtYHWyO0--41" vertex="1" connectable="0">
          <mxGeometry x="0.7199" relative="1" as="geometry">
            <mxPoint x="7" y="-20" as="offset" />
          </mxGeometry>
        </mxCell>
        <mxCell id="Sm2g18OlGwMvtYHWyO0--44" value="&lt;font style=&quot;font-size: 24px;&quot;&gt;$$K_{p}^{pos} e G_{\theta}$$&lt;/font&gt;" style="rounded=0;whiteSpace=wrap;html=1;" parent="1" vertex="1">
          <mxGeometry x="2866" y="1520" width="136" height="60" as="geometry" />
        </mxCell>
        <mxCell id="Sm2g18OlGwMvtYHWyO0--45" style="edgeStyle=orthogonalEdgeStyle;rounded=0;orthogonalLoop=1;jettySize=auto;html=1;exitX=1;exitY=0.5;exitDx=0;exitDy=0;entryX=0;entryY=0.5;entryDx=0;entryDy=0;" parent="1" source="Sm2g18OlGwMvtYHWyO0--47" target="Sm2g18OlGwMvtYHWyO0--37" edge="1">
          <mxGeometry relative="1" as="geometry" />
        </mxCell>
        <mxCell id="Sm2g18OlGwMvtYHWyO0--46" value="&lt;font style=&quot;font-size: 24px;&quot;&gt;$$\dot{e}$$&lt;/font&gt;" style="edgeLabel;html=1;align=center;verticalAlign=middle;resizable=0;points=[];labelBackgroundColor=none;" parent="Sm2g18OlGwMvtYHWyO0--45" vertex="1" connectable="0">
          <mxGeometry x="-0.0686" y="1" relative="1" as="geometry">
            <mxPoint y="-19" as="offset" />
          </mxGeometry>
        </mxCell>
        <mxCell id="Sm2g18OlGwMvtYHWyO0--47" value="" style="shape=sumEllipse;perimeter=ellipsePerimeter;whiteSpace=wrap;html=1;backgroundOutline=1;" parent="1" vertex="1">
          <mxGeometry x="3328" y="1530" width="40" height="40" as="geometry" />
        </mxCell>
        <mxCell id="Sm2g18OlGwMvtYHWyO0--48" style="edgeStyle=orthogonalEdgeStyle;rounded=0;orthogonalLoop=1;jettySize=auto;html=1;exitX=1;exitY=0.5;exitDx=0;exitDy=0;entryX=0;entryY=0.5;entryDx=0;entryDy=0;" parent="1" source="Sm2g18OlGwMvtYHWyO0--80" target="Sm2g18OlGwMvtYHWyO0--53" edge="1">
          <mxGeometry relative="1" as="geometry" />
        </mxCell>
        <mxCell id="Sm2g18OlGwMvtYHWyO0--50" value="&lt;font style=&quot;font-size: 24px;&quot;&gt;+&lt;/font&gt;" style="edgeLabel;html=1;align=center;verticalAlign=middle;resizable=0;points=[];labelBackgroundColor=none;" parent="Sm2g18OlGwMvtYHWyO0--48" vertex="1" connectable="0">
          <mxGeometry x="0.7215" relative="1" as="geometry">
            <mxPoint x="53" y="-10" as="offset" />
          </mxGeometry>
        </mxCell>
        <mxCell id="Sm2g18OlGwMvtYHWyO0--51" style="edgeStyle=orthogonalEdgeStyle;rounded=0;orthogonalLoop=1;jettySize=auto;html=1;exitX=1;exitY=0.5;exitDx=0;exitDy=0;entryX=0;entryY=0.5;entryDx=0;entryDy=0;" parent="1" source="Sm2g18OlGwMvtYHWyO0--72" target="Sm2g18OlGwMvtYHWyO0--62" edge="1">
          <mxGeometry relative="1" as="geometry" />
        </mxCell>
        <mxCell id="Sm2g18OlGwMvtYHWyO0--52" value="&lt;font style=&quot;font-size: 24px;&quot;&gt;$$V_{set}$$&lt;/font&gt;" style="edgeLabel;html=1;align=center;verticalAlign=middle;resizable=0;points=[];labelBackgroundColor=none;" parent="Sm2g18OlGwMvtYHWyO0--51" vertex="1" connectable="0">
          <mxGeometry x="-0.0333" y="1" relative="1" as="geometry">
            <mxPoint y="-19" as="offset" />
          </mxGeometry>
        </mxCell>
        <mxCell id="Sm2g18OlGwMvtYHWyO0--53" value="" style="shape=sumEllipse;perimeter=ellipsePerimeter;whiteSpace=wrap;html=1;backgroundOutline=1;" parent="1" vertex="1">
          <mxGeometry x="4059.42" y="1530" width="40" height="40" as="geometry" />
        </mxCell>
        <mxCell id="Sm2g18OlGwMvtYHWyO0--54" style="edgeStyle=orthogonalEdgeStyle;rounded=0;orthogonalLoop=1;jettySize=auto;html=1;exitX=0.5;exitY=1;exitDx=0;exitDy=0;entryX=0.5;entryY=1;entryDx=0;entryDy=0;" parent="1" source="Sm2g18OlGwMvtYHWyO0--62" target="Sm2g18OlGwMvtYHWyO0--40" edge="1">
          <mxGeometry relative="1" as="geometry">
            <Array as="points">
              <mxPoint x="4761" y="1770" />
              <mxPoint x="2721" y="1770" />
            </Array>
          </mxGeometry>
        </mxCell>
        <mxCell id="Sm2g18OlGwMvtYHWyO0--55" value="&lt;font style=&quot;font-size: 18px;&quot;&gt;$$default:5\rm{kHz}$$&lt;/font&gt;" style="edgeLabel;html=1;align=center;verticalAlign=middle;resizable=0;points=[];labelBackgroundColor=none;" parent="Sm2g18OlGwMvtYHWyO0--54" vertex="1" connectable="0">
          <mxGeometry x="-0.0107" y="1" relative="1" as="geometry">
            <mxPoint x="-35" y="19" as="offset" />
          </mxGeometry>
        </mxCell>
        <mxCell id="Sm2g18OlGwMvtYHWyO0--56" value="&lt;font style=&quot;font-size: 24px;&quot;&gt;$$q$$&lt;/font&gt;" style="edgeLabel;html=1;align=center;verticalAlign=middle;resizable=0;points=[];labelBackgroundColor=none;" parent="Sm2g18OlGwMvtYHWyO0--54" vertex="1" connectable="0">
          <mxGeometry x="0.8866" relative="1" as="geometry">
            <mxPoint x="20" y="-61" as="offset" />
          </mxGeometry>
        </mxCell>
        <mxCell id="Sm2g18OlGwMvtYHWyO0--57" style="edgeStyle=orthogonalEdgeStyle;rounded=0;orthogonalLoop=1;jettySize=auto;html=1;exitX=0.5;exitY=1;exitDx=0;exitDy=0;entryX=0.5;entryY=1;entryDx=0;entryDy=0;" parent="1" source="Sm2g18OlGwMvtYHWyO0--62" target="Sm2g18OlGwMvtYHWyO0--47" edge="1">
          <mxGeometry relative="1" as="geometry">
            <Array as="points">
              <mxPoint x="4760" y="1600" />
              <mxPoint x="4760" y="1710" />
              <mxPoint x="3348" y="1710" />
            </Array>
          </mxGeometry>
        </mxCell>
        <mxCell id="Sm2g18OlGwMvtYHWyO0--58" value="&lt;font style=&quot;font-size: 18px;&quot;&gt;$$default:10\rm{kHz}$$&lt;/font&gt;" style="edgeLabel;html=1;align=center;verticalAlign=middle;resizable=0;points=[];labelBackgroundColor=none;" parent="Sm2g18OlGwMvtYHWyO0--57" vertex="1" connectable="0">
          <mxGeometry x="-0.0125" relative="1" as="geometry">
            <mxPoint x="-12" y="20" as="offset" />
          </mxGeometry>
        </mxCell>
        <mxCell id="Sm2g18OlGwMvtYHWyO0--59" value="&lt;font style=&quot;font-size: 24px;&quot;&gt;$$\dot{q} G_{\omega}$$&lt;/font&gt;" style="edgeLabel;html=1;align=center;verticalAlign=middle;resizable=0;points=[];labelBackgroundColor=none;" parent="Sm2g18OlGwMvtYHWyO0--57" vertex="1" connectable="0">
          <mxGeometry x="0.8034" y="-1" relative="1" as="geometry">
            <mxPoint x="25" y="-69" as="offset" />
          </mxGeometry>
        </mxCell>
        <mxCell id="Sm2g18OlGwMvtYHWyO0--60" style="edgeStyle=orthogonalEdgeStyle;rounded=0;orthogonalLoop=1;jettySize=auto;html=1;exitX=0.5;exitY=1;exitDx=0;exitDy=0;entryX=0.5;entryY=1;entryDx=0;entryDy=0;" parent="1" source="Sm2g18OlGwMvtYHWyO0--62" target="Sm2g18OlGwMvtYHWyO0--53" edge="1">
          <mxGeometry relative="1" as="geometry">
            <Array as="points">
              <mxPoint x="4590" y="1650" />
              <mxPoint x="4079" y="1650" />
            </Array>
          </mxGeometry>
        </mxCell>
        <mxCell id="Sm2g18OlGwMvtYHWyO0--61" value="&lt;font style=&quot;font-size: 18px;&quot;&gt;$$20\rm{kHz}$$&lt;/font&gt;" style="edgeLabel;html=1;align=center;verticalAlign=middle;resizable=0;points=[];labelBackgroundColor=none;" parent="Sm2g18OlGwMvtYHWyO0--60" vertex="1" connectable="0">
          <mxGeometry x="-0.1024" relative="1" as="geometry">
            <mxPoint x="-25" y="20" as="offset" />
          </mxGeometry>
        </mxCell>
        <mxCell id="Sm2g18OlGwMvtYHWyO0--62" value="M" style="verticalLabelPosition=middle;shadow=0;dashed=0;align=center;html=1;verticalAlign=middle;strokeWidth=1;shape=ellipse;aspect=fixed;fontSize=35;" parent="1" vertex="1">
          <mxGeometry x="4540" y="1500" width="100" height="100" as="geometry" />
        </mxCell>
        <mxCell id="Sm2g18OlGwMvtYHWyO0--63" value="" style="endArrow=classic;html=1;rounded=0;" parent="1" edge="1">
          <mxGeometry width="50" height="50" relative="1" as="geometry">
            <mxPoint x="2541" y="1550" as="sourcePoint" />
            <mxPoint x="2701" y="1550" as="targetPoint" />
          </mxGeometry>
        </mxCell>
        <mxCell id="Sm2g18OlGwMvtYHWyO0--64" value="&lt;font style=&quot;font-size: 24px;&quot;&gt;$$q_{d}$$&lt;/font&gt;" style="edgeLabel;html=1;align=center;verticalAlign=middle;resizable=0;points=[];labelBackgroundColor=none;" parent="Sm2g18OlGwMvtYHWyO0--63" vertex="1" connectable="0">
          <mxGeometry x="0.0063" y="3" relative="1" as="geometry">
            <mxPoint y="-17" as="offset" />
          </mxGeometry>
        </mxCell>
        <mxCell id="Sm2g18OlGwMvtYHWyO0--65" value="&lt;font style=&quot;font-size: 24px;&quot;&gt;+&lt;/font&gt;" style="edgeLabel;html=1;align=center;verticalAlign=middle;resizable=0;points=[];labelBackgroundColor=none;" parent="Sm2g18OlGwMvtYHWyO0--63" vertex="1" connectable="0">
          <mxGeometry x="0.6781" relative="1" as="geometry">
            <mxPoint x="18" y="-20" as="offset" />
          </mxGeometry>
        </mxCell>
        <mxCell id="Sm2g18OlGwMvtYHWyO0--66" value="&lt;font style=&quot;font-size: 24px;&quot;&gt;-&lt;/font&gt;" style="edgeLabel;html=1;align=center;verticalAlign=middle;resizable=0;points=[];labelBackgroundColor=none;" parent="1" vertex="1" connectable="0">
          <mxGeometry x="2704.416666666667" y="1576" as="geometry">
            <mxPoint x="-3" y="1" as="offset" />
          </mxGeometry>
        </mxCell>
        <mxCell id="Sm2g18OlGwMvtYHWyO0--67" value="&lt;font style=&quot;font-size: 24px;&quot;&gt;-&lt;/font&gt;" style="edgeLabel;html=1;align=center;verticalAlign=middle;resizable=0;points=[];labelBackgroundColor=none;" parent="1" vertex="1" connectable="0">
          <mxGeometry x="3328.0022222222224" y="1576" as="geometry" />
        </mxCell>
        <mxCell id="Sm2g18OlGwMvtYHWyO0--68" value="&lt;font style=&quot;font-size: 24px;&quot;&gt;-&lt;/font&gt;" style="edgeLabel;html=1;align=center;verticalAlign=middle;resizable=0;points=[];labelBackgroundColor=none;" parent="1" vertex="1" connectable="0">
          <mxGeometry x="4041.0004201680676" y="1589" as="geometry">
            <mxPoint x="7" y="1" as="offset" />
          </mxGeometry>
        </mxCell>
        <mxCell id="Sm2g18OlGwMvtYHWyO0--69" value="&lt;font style=&quot;font-size: 24px;&quot;&gt;$$I_{q_{feedback}}$$&lt;/font&gt;" style="edgeLabel;html=1;align=center;verticalAlign=middle;resizable=0;points=[];labelBackgroundColor=none;" parent="1" vertex="1" connectable="0">
          <mxGeometry x="4131.004577899711" y="1625.0033514424863" as="geometry" />
        </mxCell>
        <mxCell id="Sm2g18OlGwMvtYHWyO0--70" value="" style="edgeStyle=orthogonalEdgeStyle;rounded=0;orthogonalLoop=1;jettySize=auto;html=1;exitX=1;exitY=0.5;exitDx=0;exitDy=0;entryX=0;entryY=0.5;entryDx=0;entryDy=0;" parent="1" source="Sm2g18OlGwMvtYHWyO0--53" target="Sm2g18OlGwMvtYHWyO0--72" edge="1">
          <mxGeometry relative="1" as="geometry">
            <mxPoint x="4099" y="1550" as="sourcePoint" />
            <mxPoint x="4366" y="1550" as="targetPoint" />
          </mxGeometry>
        </mxCell>
        <mxCell id="Sm2g18OlGwMvtYHWyO0--71" value="&lt;font style=&quot;font-size: 24px;&quot;&gt;$$I_{q_{err}}$$&lt;/font&gt;" style="edgeLabel;html=1;align=center;verticalAlign=middle;resizable=0;points=[];labelBackgroundColor=none;" parent="Sm2g18OlGwMvtYHWyO0--70" vertex="1" connectable="0">
          <mxGeometry x="-0.0817" y="-1" relative="1" as="geometry">
            <mxPoint y="-21" as="offset" />
          </mxGeometry>
        </mxCell>
        <mxCell id="Sm2g18OlGwMvtYHWyO0--72" value="&lt;font style=&quot;font-size: 24px;&quot;&gt;$$I_{q} \ \text{PI Controller}$$&lt;/font&gt;" style="rounded=0;whiteSpace=wrap;html=1;" parent="1" vertex="1">
          <mxGeometry x="4206" y="1520" width="220" height="60" as="geometry" />
        </mxCell>
        <mxCell id="Sm2g18OlGwMvtYHWyO0--77" value="" style="edgeStyle=orthogonalEdgeStyle;rounded=0;orthogonalLoop=1;jettySize=auto;html=1;exitX=1;exitY=0.5;exitDx=0;exitDy=0;entryX=0;entryY=0.5;entryDx=0;entryDy=0;" parent="1" source="Sm2g18OlGwMvtYHWyO0--44" target="Sm2g18OlGwMvtYHWyO0--73" edge="1">
          <mxGeometry relative="1" as="geometry">
            <mxPoint x="3031" y="1550" as="sourcePoint" />
            <mxPoint x="3328" y="1550" as="targetPoint" />
          </mxGeometry>
        </mxCell>
        <mxCell id="Sm2g18OlGwMvtYHWyO0--78" value="&lt;font style=&quot;font-size: 24px;&quot;&gt;$$\dot{q}$$&lt;/font&gt;" style="edgeLabel;html=1;align=center;verticalAlign=middle;resizable=0;points=[];labelBackgroundColor=none;" parent="Sm2g18OlGwMvtYHWyO0--77" vertex="1" connectable="0">
          <mxGeometry x="-0.0483" y="1" relative="1" as="geometry">
            <mxPoint x="225" y="-19" as="offset" />
          </mxGeometry>
        </mxCell>
        <mxCell id="Sm2g18OlGwMvtYHWyO0--73" value="&lt;font style=&quot;font-size: 24px;&quot;&gt;SpeedMax&lt;br&gt;Limit&lt;/font&gt;" style="rounded=0;whiteSpace=wrap;html=1;" parent="1" vertex="1">
          <mxGeometry x="3088" y="1520" width="150" height="60" as="geometry" />
        </mxCell>
        <mxCell id="Sm2g18OlGwMvtYHWyO0--81" value="" style="edgeStyle=orthogonalEdgeStyle;rounded=0;orthogonalLoop=1;jettySize=auto;html=1;exitX=1;exitY=0.5;exitDx=0;exitDy=0;entryX=0;entryY=0.5;entryDx=0;entryDy=0;" parent="1" source="Sm2g18OlGwMvtYHWyO0--37" target="Sm2g18OlGwMvtYHWyO0--80" edge="1">
          <mxGeometry relative="1" as="geometry">
            <mxPoint x="3798" y="1550" as="sourcePoint" />
            <mxPoint x="4284" y="1550" as="targetPoint" />
          </mxGeometry>
        </mxCell>
        <mxCell id="Sm2g18OlGwMvtYHWyO0--82" value="&lt;font style=&quot;font-size: 24px;&quot;&gt;$$I_{q_{set}}$$&lt;/font&gt;" style="edgeLabel;html=1;align=center;verticalAlign=middle;resizable=0;points=[];labelBackgroundColor=none;" parent="Sm2g18OlGwMvtYHWyO0--81" vertex="1" connectable="0">
          <mxGeometry x="-0.02" y="-1" relative="1" as="geometry">
            <mxPoint x="207" y="-21" as="offset" />
          </mxGeometry>
        </mxCell>
        <mxCell id="Sm2g18OlGwMvtYHWyO0--80" value="&lt;h1&gt;$$I_{q}$$&lt;/h1&gt;&lt;h1&gt;$$Limit$$&lt;/h1&gt;" style="rounded=0;whiteSpace=wrap;html=1;" parent="1" vertex="1">
          <mxGeometry x="3870" y="1475" width="90" height="150" as="geometry" />
        </mxCell>
        <mxCell id="Sm2g18OlGwMvtYHWyO0--84" value="&lt;font style=&quot;font-size: 24px;&quot;&gt;$$K_{p}^{vel} \dot{e} + T_{\omega} K_{i}^{vel} \int\dot{e}$$&lt;/font&gt;" style="rounded=0;whiteSpace=wrap;html=1;" parent="1" vertex="1">
          <mxGeometry x="3260" y="2195" width="330" height="90" as="geometry" />
        </mxCell>
        <mxCell id="Sm2g18OlGwMvtYHWyO0--85" style="edgeStyle=orthogonalEdgeStyle;rounded=0;orthogonalLoop=1;jettySize=auto;html=1;exitX=1;exitY=0.5;exitDx=0;exitDy=0;entryX=0;entryY=0.5;entryDx=0;entryDy=0;" parent="1" source="Sm2g18OlGwMvtYHWyO0--128" target="Sm2g18OlGwMvtYHWyO0--90" edge="1">
          <mxGeometry relative="1" as="geometry">
            <mxPoint x="3020" y="2240" as="sourcePoint" />
          </mxGeometry>
        </mxCell>
        <mxCell id="Sm2g18OlGwMvtYHWyO0--86" value="&lt;font style=&quot;font-size: 24px;&quot;&gt;$$\dot{q}_{d}$$&lt;/font&gt;" style="edgeLabel;html=1;align=center;verticalAlign=middle;resizable=0;points=[];labelBackgroundColor=none;" parent="Sm2g18OlGwMvtYHWyO0--85" vertex="1" connectable="0">
          <mxGeometry x="-0.0483" y="1" relative="1" as="geometry">
            <mxPoint x="-261" y="-19" as="offset" />
          </mxGeometry>
        </mxCell>
        <mxCell id="Sm2g18OlGwMvtYHWyO0--87" value="&lt;font style=&quot;font-size: 24px;&quot;&gt;+&lt;/font&gt;" style="edgeLabel;html=1;align=center;verticalAlign=middle;resizable=0;points=[];labelBackgroundColor=none;" parent="Sm2g18OlGwMvtYHWyO0--85" vertex="1" connectable="0">
          <mxGeometry x="0.7199" relative="1" as="geometry">
            <mxPoint x="4" y="-20" as="offset" />
          </mxGeometry>
        </mxCell>
        <mxCell id="Sm2g18OlGwMvtYHWyO0--88" style="edgeStyle=orthogonalEdgeStyle;rounded=0;orthogonalLoop=1;jettySize=auto;html=1;exitX=1;exitY=0.5;exitDx=0;exitDy=0;entryX=0;entryY=0.5;entryDx=0;entryDy=0;" parent="1" source="Sm2g18OlGwMvtYHWyO0--90" target="Sm2g18OlGwMvtYHWyO0--84" edge="1">
          <mxGeometry relative="1" as="geometry" />
        </mxCell>
        <mxCell id="Sm2g18OlGwMvtYHWyO0--89" value="&lt;font style=&quot;font-size: 24px;&quot;&gt;$$\dot{e}$$&lt;/font&gt;" style="edgeLabel;html=1;align=center;verticalAlign=middle;resizable=0;points=[];labelBackgroundColor=none;" parent="Sm2g18OlGwMvtYHWyO0--88" vertex="1" connectable="0">
          <mxGeometry x="-0.0686" y="1" relative="1" as="geometry">
            <mxPoint y="-19" as="offset" />
          </mxGeometry>
        </mxCell>
        <mxCell id="Sm2g18OlGwMvtYHWyO0--90" value="" style="shape=sumEllipse;perimeter=ellipsePerimeter;whiteSpace=wrap;html=1;backgroundOutline=1;" parent="1" vertex="1">
          <mxGeometry x="3120" y="2220" width="40" height="40" as="geometry" />
        </mxCell>
        <mxCell id="Sm2g18OlGwMvtYHWyO0--91" style="edgeStyle=orthogonalEdgeStyle;rounded=0;orthogonalLoop=1;jettySize=auto;html=1;exitX=1;exitY=0.5;exitDx=0;exitDy=0;entryX=0;entryY=0.5;entryDx=0;entryDy=0;" parent="1" source="Sm2g18OlGwMvtYHWyO0--110" target="Sm2g18OlGwMvtYHWyO0--96" edge="1">
          <mxGeometry relative="1" as="geometry" />
        </mxCell>
        <mxCell id="Sm2g18OlGwMvtYHWyO0--93" value="&lt;font style=&quot;font-size: 24px;&quot;&gt;+&lt;/font&gt;" style="edgeLabel;html=1;align=center;verticalAlign=middle;resizable=0;points=[];labelBackgroundColor=none;" parent="Sm2g18OlGwMvtYHWyO0--91" vertex="1" connectable="0">
          <mxGeometry x="0.7215" relative="1" as="geometry">
            <mxPoint x="10" y="-20" as="offset" />
          </mxGeometry>
        </mxCell>
        <mxCell id="Sm2g18OlGwMvtYHWyO0--94" style="edgeStyle=orthogonalEdgeStyle;rounded=0;orthogonalLoop=1;jettySize=auto;html=1;exitX=1;exitY=0.5;exitDx=0;exitDy=0;entryX=0;entryY=0.5;entryDx=0;entryDy=0;" parent="1" source="Sm2g18OlGwMvtYHWyO0--108" target="Sm2g18OlGwMvtYHWyO0--102" edge="1">
          <mxGeometry relative="1" as="geometry" />
        </mxCell>
        <mxCell id="Sm2g18OlGwMvtYHWyO0--95" value="&lt;font style=&quot;font-size: 24px;&quot;&gt;$$V_{set}$$&lt;/font&gt;" style="edgeLabel;html=1;align=center;verticalAlign=middle;resizable=0;points=[];labelBackgroundColor=none;" parent="Sm2g18OlGwMvtYHWyO0--94" vertex="1" connectable="0">
          <mxGeometry x="-0.0333" y="1" relative="1" as="geometry">
            <mxPoint y="-19" as="offset" />
          </mxGeometry>
        </mxCell>
        <mxCell id="Sm2g18OlGwMvtYHWyO0--96" value="" style="shape=sumEllipse;perimeter=ellipsePerimeter;whiteSpace=wrap;html=1;backgroundOutline=1;" parent="1" vertex="1">
          <mxGeometry x="3939.65" y="2220" width="40" height="40" as="geometry" />
        </mxCell>
        <mxCell id="Sm2g18OlGwMvtYHWyO0--97" style="edgeStyle=orthogonalEdgeStyle;rounded=0;orthogonalLoop=1;jettySize=auto;html=1;exitX=0.5;exitY=1;exitDx=0;exitDy=0;entryX=0.5;entryY=1;entryDx=0;entryDy=0;" parent="1" source="Sm2g18OlGwMvtYHWyO0--102" target="Sm2g18OlGwMvtYHWyO0--90" edge="1">
          <mxGeometry relative="1" as="geometry">
            <Array as="points">
              <mxPoint x="4453" y="2420" />
              <mxPoint x="3140" y="2420" />
            </Array>
          </mxGeometry>
        </mxCell>
        <mxCell id="Sm2g18OlGwMvtYHWyO0--98" value="&lt;font style=&quot;font-size: 18px;&quot;&gt;$$default:10\rm{kHz}$$&lt;/font&gt;" style="edgeLabel;html=1;align=center;verticalAlign=middle;resizable=0;points=[];labelBackgroundColor=none;" parent="Sm2g18OlGwMvtYHWyO0--97" vertex="1" connectable="0">
          <mxGeometry x="-0.0125" relative="1" as="geometry">
            <mxPoint x="-12" y="20" as="offset" />
          </mxGeometry>
        </mxCell>
        <mxCell id="Sm2g18OlGwMvtYHWyO0--99" value="&lt;font style=&quot;font-size: 24px;&quot;&gt;$$\dot{q} G_{\omega}$$&lt;/font&gt;" style="edgeLabel;html=1;align=center;verticalAlign=middle;resizable=0;points=[];labelBackgroundColor=none;" parent="Sm2g18OlGwMvtYHWyO0--97" vertex="1" connectable="0">
          <mxGeometry x="0.8034" y="-1" relative="1" as="geometry">
            <mxPoint x="25" y="-69" as="offset" />
          </mxGeometry>
        </mxCell>
        <mxCell id="Sm2g18OlGwMvtYHWyO0--100" style="edgeStyle=orthogonalEdgeStyle;rounded=0;orthogonalLoop=1;jettySize=auto;html=1;exitX=0.5;exitY=1;exitDx=0;exitDy=0;entryX=0.5;entryY=1;entryDx=0;entryDy=0;" parent="1" source="Sm2g18OlGwMvtYHWyO0--102" target="Sm2g18OlGwMvtYHWyO0--96" edge="1">
          <mxGeometry relative="1" as="geometry">
            <Array as="points">
              <mxPoint x="4452.65" y="2330" />
              <mxPoint x="3959.65" y="2330" />
            </Array>
          </mxGeometry>
        </mxCell>
        <mxCell id="Sm2g18OlGwMvtYHWyO0--101" value="&lt;font style=&quot;font-size: 18px;&quot;&gt;$$20\rm{kHz}$$&lt;/font&gt;" style="edgeLabel;html=1;align=center;verticalAlign=middle;resizable=0;points=[];labelBackgroundColor=none;" parent="Sm2g18OlGwMvtYHWyO0--100" vertex="1" connectable="0">
          <mxGeometry x="-0.1024" relative="1" as="geometry">
            <mxPoint x="-25" y="20" as="offset" />
          </mxGeometry>
        </mxCell>
        <mxCell id="Sm2g18OlGwMvtYHWyO0--102" value="M" style="verticalLabelPosition=middle;shadow=0;dashed=0;align=center;html=1;verticalAlign=middle;strokeWidth=1;shape=ellipse;aspect=fixed;fontSize=35;" parent="1" vertex="1">
          <mxGeometry x="4402.65" y="2190" width="100" height="100" as="geometry" />
        </mxCell>
        <mxCell id="Sm2g18OlGwMvtYHWyO0--103" value="&lt;font style=&quot;font-size: 24px;&quot;&gt;-&lt;/font&gt;" style="edgeLabel;html=1;align=center;verticalAlign=middle;resizable=0;points=[];labelBackgroundColor=none;" parent="1" vertex="1" connectable="0">
          <mxGeometry x="3120.0022222222224" y="2270" as="geometry" />
        </mxCell>
        <mxCell id="Sm2g18OlGwMvtYHWyO0--104" value="&lt;font style=&quot;font-size: 24px;&quot;&gt;-&lt;/font&gt;" style="edgeLabel;html=1;align=center;verticalAlign=middle;resizable=0;points=[];labelBackgroundColor=none;" parent="1" vertex="1" connectable="0">
          <mxGeometry x="3793.0004201680676" y="2239" as="geometry">
            <mxPoint x="148" y="28" as="offset" />
          </mxGeometry>
        </mxCell>
        <mxCell id="Sm2g18OlGwMvtYHWyO0--105" value="&lt;font style=&quot;font-size: 24px;&quot;&gt;$$I_{q_{feedback}}$$&lt;/font&gt;" style="edgeLabel;html=1;align=center;verticalAlign=middle;resizable=0;points=[];labelBackgroundColor=none;" parent="1" vertex="1" connectable="0">
          <mxGeometry x="4009.654577899711" y="2300.0033514424863" as="geometry" />
        </mxCell>
        <mxCell id="Sm2g18OlGwMvtYHWyO0--106" value="" style="edgeStyle=orthogonalEdgeStyle;rounded=0;orthogonalLoop=1;jettySize=auto;html=1;exitX=1;exitY=0.5;exitDx=0;exitDy=0;entryX=0;entryY=0.5;entryDx=0;entryDy=0;" parent="1" source="Sm2g18OlGwMvtYHWyO0--96" target="Sm2g18OlGwMvtYHWyO0--108" edge="1">
          <mxGeometry relative="1" as="geometry">
            <mxPoint x="3961.65" y="2240" as="sourcePoint" />
            <mxPoint x="4228.65" y="2240" as="targetPoint" />
          </mxGeometry>
        </mxCell>
        <mxCell id="Sm2g18OlGwMvtYHWyO0--107" value="&lt;font style=&quot;font-size: 24px;&quot;&gt;$$I_{q_{err}}$$&lt;/font&gt;" style="edgeLabel;html=1;align=center;verticalAlign=middle;resizable=0;points=[];labelBackgroundColor=none;" parent="Sm2g18OlGwMvtYHWyO0--106" vertex="1" connectable="0">
          <mxGeometry x="-0.0817" y="-1" relative="1" as="geometry">
            <mxPoint y="-21" as="offset" />
          </mxGeometry>
        </mxCell>
        <mxCell id="Sm2g18OlGwMvtYHWyO0--108" value="&lt;font style=&quot;font-size: 24px;&quot;&gt;$$I_{q} \ \text{PI Controller}$$&lt;/font&gt;" style="rounded=0;whiteSpace=wrap;html=1;" parent="1" vertex="1">
          <mxGeometry x="4068.65" y="2210" width="220" height="60" as="geometry" />
        </mxCell>
        <mxCell id="Sm2g18OlGwMvtYHWyO0--111" value="" style="edgeStyle=orthogonalEdgeStyle;rounded=0;orthogonalLoop=1;jettySize=auto;html=1;exitX=1;exitY=0.5;exitDx=0;exitDy=0;entryX=0;entryY=0.5;entryDx=0;entryDy=0;" parent="1" source="Sm2g18OlGwMvtYHWyO0--84" target="Sm2g18OlGwMvtYHWyO0--110" edge="1">
          <mxGeometry relative="1" as="geometry">
            <mxPoint x="3590" y="2240" as="sourcePoint" />
            <mxPoint x="3870" y="2240" as="targetPoint" />
          </mxGeometry>
        </mxCell>
        <mxCell id="Sm2g18OlGwMvtYHWyO0--112" value="&lt;font style=&quot;font-size: 24px;&quot;&gt;$$I_{q_{set}}$$&lt;/font&gt;" style="edgeLabel;html=1;align=center;verticalAlign=middle;resizable=0;points=[];labelBackgroundColor=none;" parent="Sm2g18OlGwMvtYHWyO0--111" vertex="1" connectable="0">
          <mxGeometry x="-0.02" y="-1" relative="1" as="geometry">
            <mxPoint x="252" y="-21" as="offset" />
          </mxGeometry>
        </mxCell>
        <mxCell id="Sm2g18OlGwMvtYHWyO0--110" value="&lt;font style=&quot;font-size: 24px;&quot;&gt;IqMax&lt;br&gt;Limit&lt;/font&gt;" style="rounded=0;whiteSpace=wrap;html=1;" parent="1" vertex="1">
          <mxGeometry x="3648" y="2210" width="150" height="60" as="geometry" />
        </mxCell>
        <mxCell id="Sm2g18OlGwMvtYHWyO0--114" style="edgeStyle=orthogonalEdgeStyle;rounded=0;orthogonalLoop=1;jettySize=auto;html=1;exitX=1;exitY=0.5;exitDx=0;exitDy=0;entryX=0;entryY=0.5;entryDx=0;entryDy=0;" parent="1" source="Sm2g18OlGwMvtYHWyO0--132" target="Sm2g18OlGwMvtYHWyO0--119" edge="1">
          <mxGeometry relative="1" as="geometry">
            <mxPoint x="3340" y="2900" as="sourcePoint" />
          </mxGeometry>
        </mxCell>
        <mxCell id="Sm2g18OlGwMvtYHWyO0--115" value="&lt;font style=&quot;font-size: 24px;&quot;&gt;$$I_{q_{set}}$$&lt;/font&gt;" style="edgeLabel;html=1;align=center;verticalAlign=middle;resizable=0;points=[];labelBackgroundColor=none;" parent="Sm2g18OlGwMvtYHWyO0--114" vertex="1" connectable="0">
          <mxGeometry x="-0.02" y="-1" relative="1" as="geometry">
            <mxPoint x="-268" y="-21" as="offset" />
          </mxGeometry>
        </mxCell>
        <mxCell id="Sm2g18OlGwMvtYHWyO0--116" value="&lt;font style=&quot;font-size: 24px;&quot;&gt;+&lt;/font&gt;" style="edgeLabel;html=1;align=center;verticalAlign=middle;resizable=0;points=[];labelBackgroundColor=none;" parent="Sm2g18OlGwMvtYHWyO0--114" vertex="1" connectable="0">
          <mxGeometry x="0.7215" relative="1" as="geometry">
            <mxPoint x="-1" y="-10" as="offset" />
          </mxGeometry>
        </mxCell>
        <mxCell id="Sm2g18OlGwMvtYHWyO0--117" style="edgeStyle=orthogonalEdgeStyle;rounded=0;orthogonalLoop=1;jettySize=auto;html=1;exitX=1;exitY=0.5;exitDx=0;exitDy=0;entryX=0;entryY=0.5;entryDx=0;entryDy=0;" parent="1" source="Sm2g18OlGwMvtYHWyO0--126" target="Sm2g18OlGwMvtYHWyO0--122" edge="1">
          <mxGeometry relative="1" as="geometry" />
        </mxCell>
        <mxCell id="Sm2g18OlGwMvtYHWyO0--118" value="&lt;font style=&quot;font-size: 24px;&quot;&gt;$$V_{set}$$&lt;/font&gt;" style="edgeLabel;html=1;align=center;verticalAlign=middle;resizable=0;points=[];labelBackgroundColor=none;" parent="Sm2g18OlGwMvtYHWyO0--117" vertex="1" connectable="0">
          <mxGeometry x="-0.0333" y="1" relative="1" as="geometry">
            <mxPoint y="-19" as="offset" />
          </mxGeometry>
        </mxCell>
        <mxCell id="Sm2g18OlGwMvtYHWyO0--119" value="" style="shape=sumEllipse;perimeter=ellipsePerimeter;whiteSpace=wrap;html=1;backgroundOutline=1;" parent="1" vertex="1">
          <mxGeometry x="3443.42" y="2880" width="40" height="40" as="geometry" />
        </mxCell>
        <mxCell id="Sm2g18OlGwMvtYHWyO0--120" style="edgeStyle=orthogonalEdgeStyle;rounded=0;orthogonalLoop=1;jettySize=auto;html=1;exitX=0.5;exitY=1;exitDx=0;exitDy=0;entryX=0.5;entryY=1;entryDx=0;entryDy=0;" parent="1" source="Sm2g18OlGwMvtYHWyO0--122" target="Sm2g18OlGwMvtYHWyO0--119" edge="1">
          <mxGeometry relative="1" as="geometry">
            <Array as="points">
              <mxPoint x="3974" y="2980" />
              <mxPoint x="3463" y="2980" />
            </Array>
          </mxGeometry>
        </mxCell>
        <mxCell id="Sm2g18OlGwMvtYHWyO0--121" value="&lt;font style=&quot;font-size: 18px;&quot;&gt;$$20\rm{kHz}$$&lt;/font&gt;" style="edgeLabel;html=1;align=center;verticalAlign=middle;resizable=0;points=[];labelBackgroundColor=none;" parent="Sm2g18OlGwMvtYHWyO0--120" vertex="1" connectable="0">
          <mxGeometry x="-0.1024" relative="1" as="geometry">
            <mxPoint x="-25" y="20" as="offset" />
          </mxGeometry>
        </mxCell>
        <mxCell id="Sm2g18OlGwMvtYHWyO0--122" value="M" style="verticalLabelPosition=middle;shadow=0;dashed=0;align=center;html=1;verticalAlign=middle;strokeWidth=1;shape=ellipse;aspect=fixed;fontSize=35;" parent="1" vertex="1">
          <mxGeometry x="3924" y="2850" width="100" height="100" as="geometry" />
        </mxCell>
        <mxCell id="Sm2g18OlGwMvtYHWyO0--123" value="&lt;font style=&quot;font-size: 24px;&quot;&gt;$$I_{q_{feedback}}$$&lt;/font&gt;" style="edgeLabel;html=1;align=center;verticalAlign=middle;resizable=0;points=[];labelBackgroundColor=none;" parent="1" vertex="1" connectable="0">
          <mxGeometry x="3517.004577899711" y="2960.0033514424863" as="geometry" />
        </mxCell>
        <mxCell id="Sm2g18OlGwMvtYHWyO0--124" value="" style="edgeStyle=orthogonalEdgeStyle;rounded=0;orthogonalLoop=1;jettySize=auto;html=1;exitX=1;exitY=0.5;exitDx=0;exitDy=0;entryX=0;entryY=0.5;entryDx=0;entryDy=0;" parent="1" source="Sm2g18OlGwMvtYHWyO0--119" target="Sm2g18OlGwMvtYHWyO0--126" edge="1">
          <mxGeometry relative="1" as="geometry">
            <mxPoint x="3483" y="2900" as="sourcePoint" />
            <mxPoint x="3750" y="2900" as="targetPoint" />
          </mxGeometry>
        </mxCell>
        <mxCell id="Sm2g18OlGwMvtYHWyO0--125" value="&lt;font style=&quot;font-size: 24px;&quot;&gt;$$I_{q_{err}}$$&lt;/font&gt;" style="edgeLabel;html=1;align=center;verticalAlign=middle;resizable=0;points=[];labelBackgroundColor=none;" parent="Sm2g18OlGwMvtYHWyO0--124" vertex="1" connectable="0">
          <mxGeometry x="-0.0817" y="-1" relative="1" as="geometry">
            <mxPoint y="-21" as="offset" />
          </mxGeometry>
        </mxCell>
        <mxCell id="Sm2g18OlGwMvtYHWyO0--126" value="&lt;font style=&quot;font-size: 24px;&quot;&gt;$$I_{q} \ \text{PI Controller}$$&lt;/font&gt;" style="rounded=0;whiteSpace=wrap;html=1;" parent="1" vertex="1">
          <mxGeometry x="3590" y="2870" width="220" height="60" as="geometry" />
        </mxCell>
        <mxCell id="Sm2g18OlGwMvtYHWyO0--127" value="&lt;font style=&quot;font-size: 24px;&quot;&gt;-&lt;/font&gt;" style="edgeLabel;html=1;align=center;verticalAlign=middle;resizable=0;points=[];labelBackgroundColor=none;" parent="1" vertex="1" connectable="0">
          <mxGeometry x="3453.002139716821" y="2922" as="geometry" />
        </mxCell>
        <mxCell id="Sm2g18OlGwMvtYHWyO0--128" value="&lt;font style=&quot;font-size: 24px;&quot;&gt;SpeedMax&lt;br&gt;Limit&lt;/font&gt;" style="rounded=0;whiteSpace=wrap;html=1;" parent="1" vertex="1">
          <mxGeometry x="2876" y="2210" width="150" height="60" as="geometry" />
        </mxCell>
        <mxCell id="Sm2g18OlGwMvtYHWyO0--129" style="edgeStyle=orthogonalEdgeStyle;rounded=0;orthogonalLoop=1;jettySize=auto;html=1;exitX=1;exitY=0.5;exitDx=0;exitDy=0;entryX=0;entryY=0.5;entryDx=0;entryDy=0;" parent="1" edge="1">
          <mxGeometry relative="1" as="geometry">
            <mxPoint x="2782" y="2239.66" as="sourcePoint" />
            <mxPoint x="2876" y="2239.66" as="targetPoint" />
          </mxGeometry>
        </mxCell>
        <mxCell id="Sm2g18OlGwMvtYHWyO0--132" value="&lt;font style=&quot;font-size: 24px;&quot;&gt;IqMax&lt;br&gt;Limit&lt;/font&gt;" style="rounded=0;whiteSpace=wrap;html=1;" parent="1" vertex="1">
          <mxGeometry x="3185" y="2870" width="150" height="60" as="geometry" />
        </mxCell>
        <mxCell id="Sm2g18OlGwMvtYHWyO0--133" style="edgeStyle=orthogonalEdgeStyle;rounded=0;orthogonalLoop=1;jettySize=auto;html=1;exitX=1;exitY=0.5;exitDx=0;exitDy=0;entryX=0;entryY=0.5;entryDx=0;entryDy=0;" parent="1" edge="1">
          <mxGeometry relative="1" as="geometry">
            <mxPoint x="3077" y="2899.83" as="sourcePoint" />
            <mxPoint x="3185" y="2899.83" as="targetPoint" />
          </mxGeometry>
        </mxCell>
        <mxCell id="P2bb1hNvKUQnUPehDUsF-36" value="" style="endArrow=classic;html=1;rounded=0;strokeWidth=3;" parent="1" edge="1">
          <mxGeometry width="50" height="50" relative="1" as="geometry">
            <mxPoint x="384" y="2530" as="sourcePoint" />
            <mxPoint x="694" y="2530" as="targetPoint" />
          </mxGeometry>
        </mxCell>
        <mxCell id="P2bb1hNvKUQnUPehDUsF-37" value="" style="endArrow=classic;html=1;rounded=0;strokeWidth=3;" parent="1" edge="1">
          <mxGeometry width="50" height="50" relative="1" as="geometry">
            <mxPoint x="534" y="2660" as="sourcePoint" />
            <mxPoint x="534" y="2370" as="targetPoint" />
          </mxGeometry>
        </mxCell>
        <mxCell id="P2bb1hNvKUQnUPehDUsF-38" value="" style="endArrow=none;html=1;rounded=0;strokeWidth=2;" parent="1" edge="1">
          <mxGeometry width="50" height="50" relative="1" as="geometry">
            <mxPoint x="539" y="2451" as="sourcePoint" />
            <mxPoint x="689" y="2461" as="targetPoint" />
            <Array as="points">
              <mxPoint x="569" y="2491" />
            </Array>
          </mxGeometry>
        </mxCell>
        <mxCell id="P2bb1hNvKUQnUPehDUsF-39" value="" style="endArrow=none;html=1;rounded=0;strokeWidth=2;" parent="1" edge="1">
          <mxGeometry width="50" height="50" relative="1" as="geometry">
            <mxPoint x="389" y="2599" as="sourcePoint" />
            <mxPoint x="529" y="2609" as="targetPoint" />
            <Array as="points">
              <mxPoint x="499" y="2569" />
            </Array>
          </mxGeometry>
        </mxCell>
        <mxCell id="P2bb1hNvKUQnUPehDUsF-40" value="" style="endArrow=none;html=1;rounded=0;strokeWidth=2;" parent="1" edge="1">
          <mxGeometry width="50" height="50" relative="1" as="geometry">
            <mxPoint x="539" y="2530" as="sourcePoint" />
            <mxPoint x="539" y="2450" as="targetPoint" />
          </mxGeometry>
        </mxCell>
        <mxCell id="P2bb1hNvKUQnUPehDUsF-41" value="" style="endArrow=none;dashed=1;html=1;dashPattern=1 3;strokeWidth=1;rounded=0;strokeColor=#FF3333;" parent="1" edge="1">
          <mxGeometry width="50" height="50" relative="1" as="geometry">
            <mxPoint x="494" y="2490" as="sourcePoint" />
            <mxPoint x="704" y="2490" as="targetPoint" />
          </mxGeometry>
        </mxCell>
        <mxCell id="P2bb1hNvKUQnUPehDUsF-48" value="$$F_{c}$$" style="text;html=1;align=center;verticalAlign=middle;whiteSpace=wrap;rounded=0;" parent="1" vertex="1">
          <mxGeometry x="432.5" y="2450" width="21" height="30" as="geometry" />
        </mxCell>
        <mxCell id="P2bb1hNvKUQnUPehDUsF-49" value="$$F_{s}$$" style="text;html=1;align=center;verticalAlign=middle;whiteSpace=wrap;rounded=0;" parent="1" vertex="1">
          <mxGeometry x="442" y="2410" width="21" height="30" as="geometry" />
        </mxCell>
        <mxCell id="P2bb1hNvKUQnUPehDUsF-51" value="$$B\cdot V$$" style="text;html=1;align=center;verticalAlign=middle;whiteSpace=wrap;rounded=0;" parent="1" vertex="1">
          <mxGeometry x="601" y="2410" width="60" height="20" as="geometry" />
        </mxCell>
        <mxCell id="P2bb1hNvKUQnUPehDUsF-52" value="" style="endArrow=classic;html=1;rounded=0;fillColor=#ffff88;strokeColor=#FF3333;" parent="1" source="P2bb1hNvKUQnUPehDUsF-49" edge="1">
          <mxGeometry width="50" height="50" relative="1" as="geometry">
            <mxPoint x="464" y="2460" as="sourcePoint" />
            <mxPoint x="534" y="2450" as="targetPoint" />
          </mxGeometry>
        </mxCell>
        <mxCell id="P2bb1hNvKUQnUPehDUsF-54" value="" style="endArrow=classic;html=1;rounded=0;exitX=1;exitY=0.5;exitDx=0;exitDy=0;strokeColor=#FF0000;" parent="1" source="P2bb1hNvKUQnUPehDUsF-48" edge="1">
          <mxGeometry width="50" height="50" relative="1" as="geometry">
            <mxPoint x="464" y="2457" as="sourcePoint" />
            <mxPoint x="504" y="2490" as="targetPoint" />
          </mxGeometry>
        </mxCell>
        <mxCell id="P2bb1hNvKUQnUPehDUsF-55" value="" style="endArrow=classic;html=1;rounded=0;exitX=0.5;exitY=1;exitDx=0;exitDy=0;strokeColor=#FF0000;" parent="1" source="P2bb1hNvKUQnUPehDUsF-51" edge="1">
          <mxGeometry width="50" height="50" relative="1" as="geometry">
            <mxPoint x="464" y="2457" as="sourcePoint" />
            <mxPoint x="624" y="2470" as="targetPoint" />
          </mxGeometry>
        </mxCell>
        <mxCell id="P2bb1hNvKUQnUPehDUsF-56" value="" style="shape=curlyBracket;whiteSpace=wrap;html=1;rounded=1;labelPosition=left;verticalLabelPosition=middle;align=right;verticalAlign=middle;rotation=-90;" parent="1" vertex="1">
          <mxGeometry x="503.5" y="2617" width="20" height="30" as="geometry" />
        </mxCell>
        <mxCell id="P2bb1hNvKUQnUPehDUsF-58" value="" style="endArrow=none;dashed=1;html=1;dashPattern=1 3;strokeWidth=1;rounded=0;exitX=0.629;exitY=-0.04;exitDx=0;exitDy=0;exitPerimeter=0;" parent="1" edge="1">
          <mxGeometry width="50" height="50" relative="1" as="geometry">
            <mxPoint x="498.20900000000006" y="2628.8" as="sourcePoint" />
            <mxPoint x="498" y="2570" as="targetPoint" />
          </mxGeometry>
        </mxCell>
        <mxCell id="P2bb1hNvKUQnUPehDUsF-59" value="" style="endArrow=none;dashed=1;html=1;dashPattern=1 3;strokeWidth=1;rounded=0;" parent="1" edge="1">
          <mxGeometry width="50" height="50" relative="1" as="geometry">
            <mxPoint x="529" y="2630" as="sourcePoint" />
            <mxPoint x="529" y="2600" as="targetPoint" />
          </mxGeometry>
        </mxCell>
        <mxCell id="P2bb1hNvKUQnUPehDUsF-60" value="$$Dead_{Speed}$$" style="text;html=1;align=center;verticalAlign=middle;whiteSpace=wrap;rounded=0;" parent="1" vertex="1">
          <mxGeometry x="481" y="2630" width="21" height="30" as="geometry" />
        </mxCell>
        <mxCell id="P2bb1hNvKUQnUPehDUsF-61" value="" style="endArrow=none;html=1;rounded=0;strokeWidth=2;" parent="1" edge="1">
          <mxGeometry width="50" height="50" relative="1" as="geometry">
            <mxPoint x="529" y="2610" as="sourcePoint" />
            <mxPoint x="529" y="2530" as="targetPoint" />
          </mxGeometry>
        </mxCell>
        <mxCell id="P2bb1hNvKUQnUPehDUsF-62" value="&lt;font style=&quot;font-size: 24px;&quot;&gt;$$K_{p} \omega_{e} + K_{i} \cdot \int \omega_{e}$$&lt;/font&gt;" style="rounded=0;whiteSpace=wrap;html=1;" parent="1" vertex="1">
          <mxGeometry x="1471" y="2505" width="232" height="90" as="geometry" />
        </mxCell>
        <mxCell id="P2bb1hNvKUQnUPehDUsF-69" style="edgeStyle=orthogonalEdgeStyle;rounded=0;orthogonalLoop=1;jettySize=auto;html=1;exitX=1;exitY=0.5;exitDx=0;exitDy=0;entryX=0;entryY=0.5;entryDx=0;entryDy=0;" parent="1" source="P2bb1hNvKUQnUPehDUsF-71" target="P2bb1hNvKUQnUPehDUsF-62" edge="1">
          <mxGeometry relative="1" as="geometry" />
        </mxCell>
        <mxCell id="P2bb1hNvKUQnUPehDUsF-70" value="&lt;font style=&quot;font-size: 24px;&quot;&gt;$$\omega_{e}$$&lt;/font&gt;" style="edgeLabel;html=1;align=center;verticalAlign=middle;resizable=0;points=[];labelBackgroundColor=none;" parent="P2bb1hNvKUQnUPehDUsF-69" vertex="1" connectable="0">
          <mxGeometry x="-0.0686" y="1" relative="1" as="geometry">
            <mxPoint y="-19" as="offset" />
          </mxGeometry>
        </mxCell>
        <mxCell id="P2bb1hNvKUQnUPehDUsF-71" value="" style="shape=sumEllipse;perimeter=ellipsePerimeter;whiteSpace=wrap;html=1;backgroundOutline=1;" parent="1" vertex="1">
          <mxGeometry x="1323" y="2530" width="40" height="40" as="geometry" />
        </mxCell>
        <mxCell id="P2bb1hNvKUQnUPehDUsF-127" style="edgeStyle=orthogonalEdgeStyle;rounded=0;orthogonalLoop=1;jettySize=auto;html=1;entryX=0;entryY=0.5;entryDx=0;entryDy=0;" parent="1" source="P2bb1hNvKUQnUPehDUsF-76" target="P2bb1hNvKUQnUPehDUsF-113" edge="1">
          <mxGeometry relative="1" as="geometry" />
        </mxCell>
        <mxCell id="P2bb1hNvKUQnUPehDUsF-76" value="" style="shape=sumEllipse;perimeter=ellipsePerimeter;whiteSpace=wrap;html=1;backgroundOutline=1;" parent="1" vertex="1">
          <mxGeometry x="1776" y="2530" width="40" height="40" as="geometry" />
        </mxCell>
        <mxCell id="P2bb1hNvKUQnUPehDUsF-80" style="edgeStyle=orthogonalEdgeStyle;rounded=0;orthogonalLoop=1;jettySize=auto;html=1;" parent="1" edge="1">
          <mxGeometry relative="1" as="geometry">
            <Array as="points">
              <mxPoint x="1160.01" y="2549.86" />
              <mxPoint x="1160.01" y="2549.86" />
            </Array>
            <mxPoint x="1300.01" y="2549.86" as="sourcePoint" />
            <mxPoint x="1323" y="2549.86" as="targetPoint" />
          </mxGeometry>
        </mxCell>
        <mxCell id="P2bb1hNvKUQnUPehDUsF-82" value="&lt;font style=&quot;font-size: 24px;&quot;&gt;$$\omega$$&lt;/font&gt;" style="edgeLabel;html=1;align=center;verticalAlign=middle;resizable=0;points=[];labelBackgroundColor=none;" parent="P2bb1hNvKUQnUPehDUsF-80" vertex="1" connectable="0">
          <mxGeometry x="0.8034" y="-1" relative="1" as="geometry">
            <mxPoint x="-73" y="-21" as="offset" />
          </mxGeometry>
        </mxCell>
        <mxCell id="P2bb1hNvKUQnUPehDUsF-90" value="&lt;font style=&quot;font-size: 24px;&quot;&gt;-&lt;/font&gt;" style="edgeLabel;html=1;align=center;verticalAlign=middle;resizable=0;points=[];labelBackgroundColor=none;" parent="1" vertex="1" connectable="0">
          <mxGeometry x="1313.0022222222224" y="2570" as="geometry" />
        </mxCell>
        <mxCell id="P2bb1hNvKUQnUPehDUsF-99" value="" style="edgeStyle=orthogonalEdgeStyle;rounded=0;orthogonalLoop=1;jettySize=auto;html=1;exitX=1;exitY=0.5;exitDx=0;exitDy=0;entryX=0;entryY=0.5;entryDx=0;entryDy=0;" parent="1" source="P2bb1hNvKUQnUPehDUsF-62" edge="1">
          <mxGeometry relative="1" as="geometry">
            <mxPoint x="1668" y="2550" as="sourcePoint" />
            <mxPoint x="1780" y="2550" as="targetPoint" />
          </mxGeometry>
        </mxCell>
        <mxCell id="P2bb1hNvKUQnUPehDUsF-109" style="edgeStyle=orthogonalEdgeStyle;rounded=0;orthogonalLoop=1;jettySize=auto;html=1;entryX=0.5;entryY=0;entryDx=0;entryDy=0;exitX=0;exitY=0;exitDx=25;exitDy=0;exitPerimeter=0;" parent="1" source="P2bb1hNvKUQnUPehDUsF-106" target="P2bb1hNvKUQnUPehDUsF-76" edge="1">
          <mxGeometry relative="1" as="geometry">
            <Array as="points">
              <mxPoint x="1796" y="2460" />
              <mxPoint x="1796" y="2460" />
            </Array>
          </mxGeometry>
        </mxCell>
        <mxCell id="P2bb1hNvKUQnUPehDUsF-106" value="" style="verticalLabelPosition=bottom;verticalAlign=top;html=1;shape=mxgraph.basic.acute_triangle;dx=0.5;rotation=-180;" parent="1" vertex="1">
          <mxGeometry x="1771" y="2410" width="50" height="50" as="geometry" />
        </mxCell>
        <mxCell id="P2bb1hNvKUQnUPehDUsF-107" value="&lt;font style=&quot;font-size: 16px;&quot;&gt;$${K}_{t}$$&lt;/font&gt;" style="edgeLabel;html=1;align=center;verticalAlign=middle;resizable=0;points=[];labelBackgroundColor=none;" parent="1" vertex="1" connectable="0">
          <mxGeometry x="1794.9988235294627" y="2420" as="geometry">
            <mxPoint x="2" y="7" as="offset" />
          </mxGeometry>
        </mxCell>
        <mxCell id="P2bb1hNvKUQnUPehDUsF-122" style="edgeStyle=orthogonalEdgeStyle;rounded=0;orthogonalLoop=1;jettySize=auto;html=1;entryX=0.5;entryY=1;entryDx=0;entryDy=0;" parent="1" source="P2bb1hNvKUQnUPehDUsF-113" target="P2bb1hNvKUQnUPehDUsF-71" edge="1">
          <mxGeometry relative="1" as="geometry">
            <Array as="points">
              <mxPoint x="2200" y="2550" />
              <mxPoint x="2200" y="2730" />
              <mxPoint x="1343" y="2730" />
            </Array>
          </mxGeometry>
        </mxCell>
        <mxCell id="P2bb1hNvKUQnUPehDUsF-113" value="&lt;font style=&quot;font-size: 24px;&quot;&gt;$$J_{Motor}\cdot&amp;nbsp; \int \hat T$$&lt;/font&gt;" style="rounded=0;whiteSpace=wrap;html=1;" parent="1" vertex="1">
          <mxGeometry x="1946" y="2505" width="160" height="90" as="geometry" />
        </mxCell>
        <mxCell id="P2bb1hNvKUQnUPehDUsF-116" value="&lt;font style=&quot;font-size: 17px;&quot;&gt;$$I_{q}$$&lt;/font&gt;" style="text;html=1;align=center;verticalAlign=middle;whiteSpace=wrap;rounded=0;" parent="1" vertex="1">
          <mxGeometry x="1596" y="2350" width="60" height="30" as="geometry" />
        </mxCell>
        <mxCell id="P2bb1hNvKUQnUPehDUsF-120" style="edgeStyle=orthogonalEdgeStyle;rounded=0;orthogonalLoop=1;jettySize=auto;html=1;" parent="1" edge="1">
          <mxGeometry relative="1" as="geometry">
            <Array as="points">
              <mxPoint x="1578" y="2390" />
              <mxPoint x="1578" y="2390" />
            </Array>
            <mxPoint x="1538" y="2390" as="sourcePoint" />
            <mxPoint x="1795" y="2410" as="targetPoint" />
          </mxGeometry>
        </mxCell>
        <mxCell id="P2bb1hNvKUQnUPehDUsF-123" value="&lt;font style=&quot;font-size: 24px;&quot;&gt;$$\hat \omega$$&lt;/font&gt;" style="edgeLabel;html=1;align=center;verticalAlign=middle;resizable=0;points=[];labelBackgroundColor=none;" parent="1" vertex="1" connectable="0">
          <mxGeometry x="2166" y="2540" as="geometry">
            <mxPoint x="-4" y="-7" as="offset" />
          </mxGeometry>
        </mxCell>
        <mxCell id="P2bb1hNvKUQnUPehDUsF-124" value="&lt;font style=&quot;font-size: 24px;&quot;&gt;+&lt;/font&gt;" style="edgeLabel;html=1;align=center;verticalAlign=middle;resizable=0;points=[];labelBackgroundColor=none;" parent="1" vertex="1" connectable="0">
          <mxGeometry x="1225.9952016668512" y="2520.004650289251" as="geometry">
            <mxPoint x="82" y="10" as="offset" />
          </mxGeometry>
        </mxCell>
        <mxCell id="P2bb1hNvKUQnUPehDUsF-126" value="&lt;font style=&quot;font-size: 24px;&quot;&gt;$$\hat T$$&lt;/font&gt;" style="edgeLabel;html=1;align=center;verticalAlign=middle;resizable=0;points=[];labelBackgroundColor=none;" parent="1" vertex="1" connectable="0">
          <mxGeometry x="1872.996666666667" y="2530" as="geometry">
            <mxPoint x="-5" y="4" as="offset" />
          </mxGeometry>
        </mxCell>
        <mxCell id="5hB5ogO4X_DvevVxE6JL-1" value="$$Friction$$" style="text;html=1;align=center;verticalAlign=middle;whiteSpace=wrap;rounded=0;" parent="1" vertex="1">
          <mxGeometry x="497.5" y="2350" width="21" height="30" as="geometry" />
        </mxCell>
        <mxCell id="5hB5ogO4X_DvevVxE6JL-2" value="$$Velocity$$" style="text;html=1;align=center;verticalAlign=middle;whiteSpace=wrap;rounded=0;" parent="1" vertex="1">
          <mxGeometry x="650" y="2530" width="21" height="30" as="geometry" />
        </mxCell>
        <mxCell id="39QGe3RMOaWDkAPt-7T3-1" value="负载观测器" style="text;html=1;align=center;verticalAlign=middle;whiteSpace=wrap;rounded=0;fontSize=20;fontStyle=1" parent="1" vertex="1">
          <mxGeometry x="1670" y="2280" width="170" height="30" as="geometry" />
        </mxCell>
        <mxCell id="39QGe3RMOaWDkAPt-7T3-2" value="摩擦补偿" style="text;html=1;align=center;verticalAlign=middle;whiteSpace=wrap;rounded=0;fontSize=20;fontStyle=1" parent="1" vertex="1">
          <mxGeometry x="442" y="2290" width="170" height="30" as="geometry" />
        </mxCell>
        <mxCell id="wFwcd0VfRIWynsDiUyvZ-1" value="" style="edgeStyle=none;orthogonalLoop=1;jettySize=auto;html=1;rounded=0;" edge="1" parent="1">
          <mxGeometry width="80" relative="1" as="geometry">
            <mxPoint x="840" y="1560" as="sourcePoint" />
            <mxPoint x="920" y="1560" as="targetPoint" />
            <Array as="points" />
          </mxGeometry>
        </mxCell>
        <mxCell id="wFwcd0VfRIWynsDiUyvZ-2" value="&lt;span style=&quot;font-size: 24px;&quot;&gt;$$T_{max}$$&lt;/span&gt;" style="edgeLabel;html=1;align=center;verticalAlign=middle;resizable=0;points=[];labelBackgroundColor=none;" vertex="1" connectable="0" parent="1">
          <mxGeometry x="879.9986901585694" y="1550.000994413193" as="geometry">
            <mxPoint x="-2" y="-8" as="offset" />
          </mxGeometry>
        </mxCell>
        <mxCell id="wFwcd0VfRIWynsDiUyvZ-3" value="&lt;span style=&quot;font-size: 24px;&quot;&gt;$$-T_{max}$$&lt;/span&gt;" style="edgeLabel;html=1;align=center;verticalAlign=middle;resizable=0;points=[];labelBackgroundColor=none;" vertex="1" connectable="0" parent="1">
          <mxGeometry x="879.9986901585694" y="1690.000994413193" as="geometry">
            <mxPoint x="-2" y="-8" as="offset" />
          </mxGeometry>
        </mxCell>
        <mxCell id="wFwcd0VfRIWynsDiUyvZ-4" value="" style="edgeStyle=none;orthogonalLoop=1;jettySize=auto;html=1;rounded=0;" edge="1" parent="1">
          <mxGeometry width="80" relative="1" as="geometry">
            <mxPoint x="840" y="1700" as="sourcePoint" />
            <mxPoint x="920" y="1700" as="targetPoint" />
            <Array as="points" />
          </mxGeometry>
        </mxCell>
      </root>
    </mxGraphModel>
  </diagram>
</mxfile>
